<svg xmlns="http://www.w3.org/2000/svg" width="155.117" height="31.233" viewBox="0 0 155.117 31.233">
  <g id="Group_37925" data-name="Group 37925" transform="translate(-2021.883 75)">
    <g id="Group_37924" data-name="Group 37924" transform="translate(0 0.617)">
      <path id="Path_3979" data-name="Path 3979" d="M9.012,23.248a.1.1,0,1,1-.1.1.1.1,0,0,1,.1-.1" transform="translate(2021.883 -75.617)" fill="#0d0f17"/>
      <path id="Path_3980" data-name="Path 3980" d="M8.716,22.05a.081.081,0,1,1-.08.08.08.08,0,0,1,.08-.08" transform="translate(2021.883 -75.617)" fill="#0d0f17"/>
      <path id="Path_3981" data-name="Path 3981" d="M10.237,23.4a.081.081,0,1,1-.08.08.08.08,0,0,1,.08-.08" transform="translate(2021.883 -75.617)" fill="#0d0f17"/>
      <path id="Path_3982" data-name="Path 3982" d="M11.5,24.1a.081.081,0,1,1-.081.081A.081.081,0,0,1,11.5,24.1" transform="translate(2021.883 -75.617)" fill="#0d0f17"/>
      <path id="Path_3983" data-name="Path 3983" d="M11.45,25.34a.118.118,0,1,1-.117.117.117.117,0,0,1,.117-.117" transform="translate(2021.883 -75.617)" fill="#0d0f17"/>
      <path id="Path_3984" data-name="Path 3984" d="M10.412,24.774a.116.116,0,1,1-.116.116.116.116,0,0,1,.116-.116" transform="translate(2021.883 -75.617)" fill="#0d0f17"/>
      <path id="Path_3985" data-name="Path 3985" d="M9.347,24.391a.125.125,0,1,1-.125.125.125.125,0,0,1,.125-.125" transform="translate(2021.883 -75.617)" fill="#0d0f17"/>
      <path id="Path_3986" data-name="Path 3986" d="M9.513,25.5a.155.155,0,1,1-.155.155.154.154,0,0,1,.155-.155" transform="translate(2021.883 -75.617)" fill="#0d0f17"/>
      <path id="Path_3987" data-name="Path 3987" d="M8.546,25.123a.164.164,0,1,1-.163.163.163.163,0,0,1,.163-.163" transform="translate(2021.883 -75.617)" fill="#0d0f17"/>
      <path id="Path_3988" data-name="Path 3988" d="M8.253,24.084a.141.141,0,1,1-.14.14.14.14,0,0,1,.14-.14" transform="translate(2021.883 -75.617)" fill="#0d0f17"/>
      <path id="Path_3989" data-name="Path 3989" d="M7.832,22.992a.122.122,0,1,1-.121.122.121.121,0,0,1,.121-.122" transform="translate(2021.883 -75.617)" fill="#0d0f17"/>
      <path id="Path_3990" data-name="Path 3990" d="M7.26,21.978a.114.114,0,1,1-.114.114.114.114,0,0,1,.114-.114" transform="translate(2021.883 -75.617)" fill="#0d0f17"/>
      <path id="Path_3991" data-name="Path 3991" d="M6.663,22.935a.152.152,0,1,1-.152.152.152.152,0,0,1,.152-.152" transform="translate(2021.883 -75.617)" fill="#0d0f17"/>
      <path id="Path_3992" data-name="Path 3992" d="M7.2,23.852a.159.159,0,1,1-.158.158.158.158,0,0,1,.158-.158" transform="translate(2021.883 -75.617)" fill="#0d0f17"/>
      <path id="Path_3993" data-name="Path 3993" d="M7.571,24.834a.178.178,0,1,1-.178.178.178.178,0,0,1,.178-.178" transform="translate(2021.883 -75.617)" fill="#0d0f17"/>
      <path id="Path_3994" data-name="Path 3994" d="M7.816,25.793a.2.2,0,1,1-.2.2.2.2,0,0,1,.2-.2" transform="translate(2021.883 -75.617)" fill="#0d0f17"/>
      <path id="Path_3995" data-name="Path 3995" d="M7.056,26.388a.221.221,0,1,1-.221.221.221.221,0,0,1,.221-.221" transform="translate(2021.883 -75.617)" fill="#0d0f17"/>
      <path id="Path_3996" data-name="Path 3996" d="M7.936,26.731a.215.215,0,1,1-.215.215.215.215,0,0,1,.215-.215" transform="translate(2021.883 -75.617)" fill="#0d0f17"/>
      <path id="Path_3997" data-name="Path 3997" d="M8.037,27.7a.229.229,0,1,1-.229.229.229.229,0,0,1,.229-.229" transform="translate(2021.883 -75.617)" fill="#0d0f17"/>
      <path id="Path_3998" data-name="Path 3998" d="M8.809,28.091a.229.229,0,1,1-.229.229.23.23,0,0,1,.229-.229" transform="translate(2021.883 -75.617)" fill="#0d0f17"/>
      <path id="Path_3999" data-name="Path 3999" d="M9.585,28.47a.229.229,0,1,1-.229.229.229.229,0,0,1,.229-.229" transform="translate(2021.883 -75.617)" fill="#0d0f17"/>
      <path id="Path_4000" data-name="Path 4000" d="M10.361,28.844a.229.229,0,1,1-.229.229.229.229,0,0,1,.229-.229" transform="translate(2021.883 -75.617)" fill="#0d0f17"/>
      <path id="Path_4001" data-name="Path 4001" d="M11.133,29.224a.231.231,0,1,1-.231.231.23.23,0,0,1,.231-.231" transform="translate(2021.883 -75.617)" fill="#0d0f17"/>
      <path id="Path_4002" data-name="Path 4002" d="M11.09,28.276a.215.215,0,1,1-.214.214.214.214,0,0,1,.214-.214" transform="translate(2021.883 -75.617)" fill="#0d0f17"/>
      <path id="Path_4003" data-name="Path 4003" d="M10.341,27.889a.212.212,0,1,1-.212.212.212.212,0,0,1,.212-.212" transform="translate(2021.883 -75.617)" fill="#0d0f17"/>
      <path id="Path_4004" data-name="Path 4004" d="M9.561,27.513a.213.213,0,1,1-.213.213.213.213,0,0,1,.213-.213" transform="translate(2021.883 -75.617)" fill="#0d0f17"/>
      <path id="Path_4005" data-name="Path 4005" d="M8.767,27.116a.214.214,0,1,1-.214.213.213.213,0,0,1,.214-.213" transform="translate(2021.883 -75.617)" fill="#0d0f17"/>
      <path id="Path_4006" data-name="Path 4006" d="M8.7,26.131a.19.19,0,1,1-.19.19.19.19,0,0,1,.19-.19" transform="translate(2021.883 -75.617)" fill="#0d0f17"/>
      <path id="Path_4007" data-name="Path 4007" d="M9.561,26.539a.187.187,0,1,1-.187.187.187.187,0,0,1,.187-.187" transform="translate(2021.883 -75.617)" fill="#0d0f17"/>
      <path id="Path_4008" data-name="Path 4008" d="M10.441,25.932a.153.153,0,1,1-.153.153.153.153,0,0,1,.153-.153" transform="translate(2021.883 -75.617)" fill="#0d0f17"/>
      <path id="Path_4009" data-name="Path 4009" d="M11.348,26.417a.155.155,0,1,1-.154.154.154.154,0,0,1,.154-.154" transform="translate(2021.883 -75.617)" fill="#0d0f17"/>
      <path id="Path_4010" data-name="Path 4010" d="M10.4,26.943a.187.187,0,1,1-.186.186.186.186,0,0,1,.186-.186" transform="translate(2021.883 -75.617)" fill="#0d0f17"/>
      <path id="Path_4011" data-name="Path 4011" d="M11.223,27.372a.191.191,0,1,1-.19.191.191.191,0,0,1,.19-.191" transform="translate(2021.883 -75.617)" fill="#0d0f17"/>
      <path id="Path_4012" data-name="Path 4012" d="M12.011,27.891a.2.2,0,1,1-.2.2.2.2,0,0,1,.2-.2" transform="translate(2021.883 -75.617)" fill="#0d0f17"/>
      <path id="Path_4013" data-name="Path 4013" d="M12.936,27.8a.188.188,0,1,1-.188.188.188.188,0,0,1,.188-.188" transform="translate(2021.883 -75.617)" fill="#0d0f17"/>
      <path id="Path_4014" data-name="Path 4014" d="M13.154,26.778a.15.15,0,1,1-.149.149.149.149,0,0,1,.149-.149" transform="translate(2021.883 -75.617)" fill="#0d0f17"/>
      <path id="Path_4015" data-name="Path 4015" d="M12.192,27.006a.168.168,0,1,1-.168.167.167.167,0,0,1,.168-.167" transform="translate(2021.883 -75.617)" fill="#0d0f17"/>
      <path id="Path_4016" data-name="Path 4016" d="M12.386,25.97a.127.127,0,1,1-.127.127.127.127,0,0,1,.127-.127" transform="translate(2021.883 -75.617)" fill="#0d0f17"/>
      <path id="Path_4017" data-name="Path 4017" d="M12.7,24.777a.087.087,0,1,1-.087.087.086.086,0,0,1,.087-.087" transform="translate(2021.883 -75.617)" fill="#0d0f17"/>
      <path id="Path_4018" data-name="Path 4018" d="M14.166,24.829a.078.078,0,1,1-.078.078.078.078,0,0,1,.078-.078" transform="translate(2021.883 -75.617)" fill="#0d0f17"/>
      <path id="Path_4019" data-name="Path 4019" d="M13.545,25.8a.113.113,0,1,1-.113.113.113.113,0,0,1,.113-.113" transform="translate(2021.883 -75.617)" fill="#0d0f17"/>
      <path id="Path_4020" data-name="Path 4020" d="M14.277,26.632a.139.139,0,1,1-.139.139.139.139,0,0,1,.139-.139" transform="translate(2021.883 -75.617)" fill="#0d0f17"/>
      <path id="Path_4021" data-name="Path 4021" d="M14.94,25.78a.107.107,0,1,1-.107.107.107.107,0,0,1,.107-.107" transform="translate(2021.883 -75.617)" fill="#0d0f17"/>
      <path id="Path_4022" data-name="Path 4022" d="M15.47,26.724a.138.138,0,1,1-.138.138.138.138,0,0,1,.138-.138" transform="translate(2021.883 -75.617)" fill="#0d0f17"/>
      <path id="Path_4023" data-name="Path 4023" d="M15.8,27.7a.176.176,0,1,1-.176.176A.176.176,0,0,1,15.8,27.7" transform="translate(2021.883 -75.617)" fill="#0d0f17"/>
      <path id="Path_4024" data-name="Path 4024" d="M16.745,27.987a.187.187,0,1,1-.186.186.186.186,0,0,1,.186-.186" transform="translate(2021.883 -75.617)" fill="#0d0f17"/>
      <path id="Path_4025" data-name="Path 4025" d="M17.709,28.3a.2.2,0,1,1-.2.2.2.2,0,0,1,.2-.2" transform="translate(2021.883 -75.617)" fill="#0d0f17"/>
      <path id="Path_4026" data-name="Path 4026" d="M16.924,28.87a.213.213,0,1,1-.213.213.213.213,0,0,1,.213-.213" transform="translate(2021.883 -75.617)" fill="#0d0f17"/>
      <path id="Path_4027" data-name="Path 4027" d="M16.031,28.617a.2.2,0,1,1-.2.2.2.2,0,0,1,.2-.2" transform="translate(2021.883 -75.617)" fill="#0d0f17"/>
      <path id="Path_4028" data-name="Path 4028" d="M16.194,29.5a.224.224,0,1,1-.224.224.224.224,0,0,1,.224-.224" transform="translate(2021.883 -75.617)" fill="#0d0f17"/>
      <path id="Path_4029" data-name="Path 4029" d="M17.019,29.764a.23.23,0,1,1-.23.23.23.23,0,0,1,.23-.23" transform="translate(2021.883 -75.617)" fill="#0d0f17"/>
      <path id="Path_4030" data-name="Path 4030" d="M17.748,29.249a.222.222,0,1,1-.222.222.222.222,0,0,1,.222-.222" transform="translate(2021.883 -75.617)" fill="#0d0f17"/>
      <path id="Path_4031" data-name="Path 4031" d="M18.516,29.638a.231.231,0,1,1-.231.231.23.23,0,0,1,.231-.231" transform="translate(2021.883 -75.617)" fill="#0d0f17"/>
      <path id="Path_4032" data-name="Path 4032" d="M19.317,29.259a.229.229,0,1,1-.229.229.229.229,0,0,1,.229-.229" transform="translate(2021.883 -75.617)" fill="#0d0f17"/>
      <path id="Path_4033" data-name="Path 4033" d="M20.148,29.021a.229.229,0,1,1-.229.229.229.229,0,0,1,.229-.229" transform="translate(2021.883 -75.617)" fill="#0d0f17"/>
      <path id="Path_4034" data-name="Path 4034" d="M20.306,28.16a.215.215,0,1,1-.214.214.214.214,0,0,1,.214-.214" transform="translate(2021.883 -75.617)" fill="#0d0f17"/>
      <path id="Path_4035" data-name="Path 4035" d="M19.382,28.385a.213.213,0,1,1-.213.213.213.213,0,0,1,.213-.213" transform="translate(2021.883 -75.617)" fill="#0d0f17"/>
      <path id="Path_4036" data-name="Path 4036" d="M18.534,28.711a.215.215,0,1,1-.215.215.215.215,0,0,1,.215-.215" transform="translate(2021.883 -75.617)" fill="#0d0f17"/>
      <path id="Path_4037" data-name="Path 4037" d="M18.566,27.746a.188.188,0,1,1-.188.188.188.188,0,0,1,.188-.188" transform="translate(2021.883 -75.617)" fill="#0d0f17"/>
      <path id="Path_4038" data-name="Path 4038" d="M18.156,26.82a.151.151,0,1,1-.151.151.152.152,0,0,1,.151-.151" transform="translate(2021.883 -75.617)" fill="#0d0f17"/>
      <path id="Path_4039" data-name="Path 4039" d="M17.5,27.415a.17.17,0,1,1-.17.17.17.17,0,0,1,.17-.17" transform="translate(2021.883 -75.617)" fill="#0d0f17"/>
      <path id="Path_4040" data-name="Path 4040" d="M16.514,27.015a.151.151,0,1,1-.151.151.152.152,0,0,1,.151-.151" transform="translate(2021.883 -75.617)" fill="#0d0f17"/>
      <path id="Path_4041" data-name="Path 4041" d="M17.266,26.306a.127.127,0,1,1-.127.127.127.127,0,0,1,.127-.127" transform="translate(2021.883 -75.617)" fill="#0d0f17"/>
      <path id="Path_4042" data-name="Path 4042" d="M16.24,25.926a.109.109,0,1,1-.109.109.109.109,0,0,1,.109-.109" transform="translate(2021.883 -75.617)" fill="#0d0f17"/>
      <path id="Path_4043" data-name="Path 4043" d="M15.8,24.817a.075.075,0,1,1-.075.075.075.075,0,0,1,.075-.075" transform="translate(2021.883 -75.617)" fill="#0d0f17"/>
      <path id="Path_4044" data-name="Path 4044" d="M17.257,24.978a.084.084,0,1,1-.084.084.084.084,0,0,1,.084-.084" transform="translate(2021.883 -75.617)" fill="#0d0f17"/>
      <path id="Path_4045" data-name="Path 4045" d="M18.694,24.511a.081.081,0,1,1-.08.081.08.08,0,0,1,.08-.081" transform="translate(2021.883 -75.617)" fill="#0d0f17"/>
      <path id="Path_4046" data-name="Path 4046" d="M18.212,25.752a.115.115,0,1,1-.115.115.115.115,0,0,1,.115-.115" transform="translate(2021.883 -75.617)" fill="#0d0f17"/>
      <path id="Path_4047" data-name="Path 4047" d="M19.245,25.711a.125.125,0,1,1-.125.125.125.125,0,0,1,.125-.125" transform="translate(2021.883 -75.617)" fill="#0d0f17"/>
      <path id="Path_4048" data-name="Path 4048" d="M19.023,26.741a.157.157,0,1,1-.157.157.157.157,0,0,1,.157-.157" transform="translate(2021.883 -75.617)" fill="#0d0f17"/>
      <path id="Path_4049" data-name="Path 4049" d="M19.566,27.538a.192.192,0,1,1-.191.191.191.191,0,0,1,.191-.191" transform="translate(2021.883 -75.617)" fill="#0d0f17"/>
      <path id="Path_4050" data-name="Path 4050" d="M19.959,26.69a.168.168,0,1,1-.167.167.167.167,0,0,1,.167-.167" transform="translate(2021.883 -75.617)" fill="#0d0f17"/>
      <path id="Path_4051" data-name="Path 4051" d="M20.606,27.34a.2.2,0,1,1-.2.2.2.2,0,0,1,.2-.2" transform="translate(2021.883 -75.617)" fill="#0d0f17"/>
      <path id="Path_4052" data-name="Path 4052" d="M21.281,27.938a.217.217,0,1,1-.217.217.217.217,0,0,1,.217-.217" transform="translate(2021.883 -75.617)" fill="#0d0f17"/>
      <path id="Path_4053" data-name="Path 4053" d="M21.59,27.108a.2.2,0,1,1-.2.2.2.2,0,0,1,.2-.2" transform="translate(2021.883 -75.617)" fill="#0d0f17"/>
      <path id="Path_4054" data-name="Path 4054" d="M22.273,27.779A.224.224,0,1,1,22.05,28a.223.223,0,0,1,.223-.223" transform="translate(2021.883 -75.617)" fill="#0d0f17"/>
      <path id="Path_4055" data-name="Path 4055" d="M23.107,27.551a.228.228,0,1,1-.227.227.228.228,0,0,1,.227-.227" transform="translate(2021.883 -75.617)" fill="#0d0f17"/>
      <path id="Path_4056" data-name="Path 4056" d="M22.477,26.87a.208.208,0,1,1-.208.208.208.208,0,0,1,.208-.208" transform="translate(2021.883 -75.617)" fill="#0d0f17"/>
      <path id="Path_4057" data-name="Path 4057" d="M23.369,26.66a.215.215,0,1,1-.215.215.215.215,0,0,1,.215-.215" transform="translate(2021.883 -75.617)" fill="#0d0f17"/>
      <path id="Path_4058" data-name="Path 4058" d="M23.971,27.3a.232.232,0,1,1-.232.231.231.231,0,0,1,.232-.231" transform="translate(2021.883 -75.617)" fill="#0d0f17"/>
      <path id="Path_4059" data-name="Path 4059" d="M24.315,26.51a.224.224,0,1,1-.224.224.224.224,0,0,1,.224-.224" transform="translate(2021.883 -75.617)" fill="#0d0f17"/>
      <path id="Path_4060" data-name="Path 4060" d="M23.662,25.811a.2.2,0,1,1-.2.2.2.2,0,0,1,.2-.2" transform="translate(2021.883 -75.617)" fill="#0d0f17"/>
      <path id="Path_4061" data-name="Path 4061" d="M23.015,25.059a.17.17,0,1,1-.17.17.17.17,0,0,1,.17-.17" transform="translate(2021.883 -75.617)" fill="#0d0f17"/>
      <path id="Path_4062" data-name="Path 4062" d="M22.73,25.959a.191.191,0,1,1-.19.191.191.191,0,0,1,.19-.191" transform="translate(2021.883 -75.617)" fill="#0d0f17"/>
      <path id="Path_4063" data-name="Path 4063" d="M21.823,26.154a.179.179,0,1,1-.179.179.179.179,0,0,1,.179-.179" transform="translate(2021.883 -75.617)" fill="#0d0f17"/>
      <path id="Path_4064" data-name="Path 4064" d="M22.055,25.168a.152.152,0,1,1-.152.152.152.152,0,0,1,.152-.152" transform="translate(2021.883 -75.617)" fill="#0d0f17"/>
      <path id="Path_4065" data-name="Path 4065" d="M21.1,25.412a.142.142,0,1,1-.142.142.143.143,0,0,1,.142-.142" transform="translate(2021.883 -75.617)" fill="#0d0f17"/>
      <path id="Path_4066" data-name="Path 4066" d="M20.928,26.45a.174.174,0,1,1-.174.174.174.174,0,0,1,.174-.174" transform="translate(2021.883 -75.617)" fill="#0d0f17"/>
      <path id="Path_4067" data-name="Path 4067" d="M20.228,25.816a.14.14,0,1,1-.14.14.14.14,0,0,1,.14-.14" transform="translate(2021.883 -75.617)" fill="#0d0f17"/>
      <path id="Path_4068" data-name="Path 4068" d="M20.023,24.812a.1.1,0,1,1-.105.1.1.1,0,0,1,.105-.1" transform="translate(2021.883 -75.617)" fill="#0d0f17"/>
      <path id="Path_4069" data-name="Path 4069" d="M20.112,23.622a.074.074,0,1,1-.074.074.074.074,0,0,1,.074-.074" transform="translate(2021.883 -75.617)" fill="#0d0f17"/>
      <path id="Path_4070" data-name="Path 4070" d="M21.191,24.357a.113.113,0,1,1-.112.112.112.112,0,0,1,.112-.112" transform="translate(2021.883 -75.617)" fill="#0d0f17"/>
      <path id="Path_4071" data-name="Path 4071" d="M21.472,23.1a.085.085,0,1,1-.084.084.084.084,0,0,1,.084-.084" transform="translate(2021.883 -75.617)" fill="#0d0f17"/>
      <path id="Path_4072" data-name="Path 4072" d="M22.476,22.049a.081.081,0,1,1-.081.081.081.081,0,0,1,.081-.081" transform="translate(2021.883 -75.617)" fill="#0d0f17"/>
      <path id="Path_4073" data-name="Path 4073" d="M23.778,22.252a.117.117,0,0,1,0,.233.117.117,0,1,1,0-.233" transform="translate(2021.883 -75.617)" fill="#0d0f17"/>
      <path id="Path_4074" data-name="Path 4074" d="M24.944,22.207a.148.148,0,1,1-.148.148.148.148,0,0,1,.148-.148" transform="translate(2021.883 -75.617)" fill="#0d0f17"/>
      <path id="Path_4075" data-name="Path 4075" d="M24.687,23.12a.162.162,0,1,1-.162.162.162.162,0,0,1,.162-.162" transform="translate(2021.883 -75.617)" fill="#0d0f17"/>
      <path id="Path_4076" data-name="Path 4076" d="M23.773,23.3a.141.141,0,1,1-.141.141.141.141,0,0,1,.141-.141" transform="translate(2021.883 -75.617)" fill="#0d0f17"/>
      <path id="Path_4077" data-name="Path 4077" d="M22.77,23.159a.114.114,0,1,1-.114.114.114.114,0,0,1,.114-.114" transform="translate(2021.883 -75.617)" fill="#0d0f17"/>
      <path id="Path_4078" data-name="Path 4078" d="M22.282,24.149a.127.127,0,1,1-.126.126.126.126,0,0,1,.126-.126" transform="translate(2021.883 -75.617)" fill="#0d0f17"/>
      <path id="Path_4079" data-name="Path 4079" d="M23.334,24.166a.153.153,0,1,1-.153.153.153.153,0,0,1,.153-.153" transform="translate(2021.883 -75.617)" fill="#0d0f17"/>
      <path id="Path_4080" data-name="Path 4080" d="M24.354,24.088a.175.175,0,1,1-.175.175.175.175,0,0,1,.175-.175" transform="translate(2021.883 -75.617)" fill="#0d0f17"/>
      <path id="Path_4081" data-name="Path 4081" d="M23.977,24.94a.189.189,0,1,1-.189.189.189.189,0,0,1,.189-.189" transform="translate(2021.883 -75.617)" fill="#0d0f17"/>
      <path id="Path_4082" data-name="Path 4082" d="M24.92,24.839a.206.206,0,1,1-.206.206.206.206,0,0,1,.206-.206" transform="translate(2021.883 -75.617)" fill="#0d0f17"/>
      <path id="Path_4083" data-name="Path 4083" d="M24.571,25.658a.213.213,0,1,1-.214.213.213.213,0,0,1,.214-.213" transform="translate(2021.883 -75.617)" fill="#0d0f17"/>
      <path id="Path_4084" data-name="Path 4084" d="M25.5,25.552a.226.226,0,1,1-.226.226.226.226,0,0,1,.226-.226" transform="translate(2021.883 -75.617)" fill="#0d0f17"/>
      <path id="Path_4085" data-name="Path 4085" d="M25.81,24.677a.219.219,0,1,1-.218.218.218.218,0,0,1,.218-.218" transform="translate(2021.883 -75.617)" fill="#0d0f17"/>
      <path id="Path_4086" data-name="Path 4086" d="M25.261,23.974a.2.2,0,1,1-.195.195.195.195,0,0,1,.195-.195" transform="translate(2021.883 -75.617)" fill="#0d0f17"/>
      <path id="Path_4087" data-name="Path 4087" d="M25.6,23.176a.188.188,0,1,1-.188.188.188.188,0,0,1,.188-.188" transform="translate(2021.883 -75.617)" fill="#0d0f17"/>
      <path id="Path_4088" data-name="Path 4088" d="M25.863,22.366a.178.178,0,1,1-.178.178.178.178,0,0,1,.178-.178" transform="translate(2021.883 -75.617)" fill="#0d0f17"/>
      <path id="Path_4089" data-name="Path 4089" d="M26.671,22.118a.2.2,0,1,1-.195.195.195.195,0,0,1,.195-.195" transform="translate(2021.883 -75.617)" fill="#0d0f17"/>
      <path id="Path_4090" data-name="Path 4090" d="M26.844,21.262a.19.19,0,1,1-.19.19.19.19,0,0,1,.19-.19" transform="translate(2021.883 -75.617)" fill="#0d0f17"/>
      <path id="Path_4091" data-name="Path 4091" d="M27.248,20.436a.19.19,0,1,1-.19.19.19.19,0,0,1,.19-.19" transform="translate(2021.883 -75.617)" fill="#0d0f17"/>
      <path id="Path_4092" data-name="Path 4092" d="M27.628,19.653a.19.19,0,1,1-.19.19.19.19,0,0,1,.19-.19" transform="translate(2021.883 -75.617)" fill="#0d0f17"/>
      <path id="Path_4093" data-name="Path 4093" d="M28.011,18.92a.195.195,0,1,1-.195.195.195.195,0,0,1,.195-.195" transform="translate(2021.883 -75.617)" fill="#0d0f17"/>
      <path id="Path_4094" data-name="Path 4094" d="M28.721,18.484a.21.21,0,1,1-.21.21.21.21,0,0,1,.21-.21" transform="translate(2021.883 -75.617)" fill="#0d0f17"/>
      <path id="Path_4095" data-name="Path 4095" d="M28.687,19.486a.216.216,0,1,1-.216.216.216.216,0,0,1,.216-.216" transform="translate(2021.883 -75.617)" fill="#0d0f17"/>
      <path id="Path_4096" data-name="Path 4096" d="M28.255,20.316a.212.212,0,1,1-.212.212.212.212,0,0,1,.212-.212" transform="translate(2021.883 -75.617)" fill="#0d0f17"/>
      <path id="Path_4097" data-name="Path 4097" d="M27.873,21.117a.214.214,0,1,1-.213.214.214.214,0,0,1,.213-.214" transform="translate(2021.883 -75.617)" fill="#0d0f17"/>
      <path id="Path_4098" data-name="Path 4098" d="M27.566,21.925a.215.215,0,1,1-.215.215.215.215,0,0,1,.215-.215" transform="translate(2021.883 -75.617)" fill="#0d0f17"/>
      <path id="Path_4099" data-name="Path 4099" d="M27.285,22.8a.219.219,0,1,1-.219.218.218.218,0,0,1,.219-.218" transform="translate(2021.883 -75.617)" fill="#0d0f17"/>
      <path id="Path_4100" data-name="Path 4100" d="M26.518,23.086a.208.208,0,1,1-.208.208.208.208,0,0,1,.208-.208" transform="translate(2021.883 -75.617)" fill="#0d0f17"/>
      <path id="Path_4101" data-name="Path 4101" d="M26.222,23.9a.214.214,0,1,1-.213.214.214.214,0,0,1,.213-.214" transform="translate(2021.883 -75.617)" fill="#0d0f17"/>
      <path id="Path_4102" data-name="Path 4102" d="M26.755,24.628a.231.231,0,1,1-.231.231.23.23,0,0,1,.231-.231" transform="translate(2021.883 -75.617)" fill="#0d0f17"/>
      <path id="Path_4103" data-name="Path 4103" d="M27.155,23.829a.228.228,0,1,1-.228.228.228.228,0,0,1,.228-.228" transform="translate(2021.883 -75.617)" fill="#0d0f17"/>
      <path id="Path_4104" data-name="Path 4104" d="M27.886,23.354a.233.233,0,1,1-.232.232.232.232,0,0,1,.232-.232" transform="translate(2021.883 -75.617)" fill="#0d0f17"/>
      <path id="Path_4105" data-name="Path 4105" d="M28.162,22.6a.23.23,0,1,1-.23.23.23.23,0,0,1,.23-.23" transform="translate(2021.883 -75.617)" fill="#0d0f17"/>
      <path id="Path_4106" data-name="Path 4106" d="M28.509,21.82a.229.229,0,1,1-.228.228.228.228,0,0,1,.228-.228" transform="translate(2021.883 -75.617)" fill="#0d0f17"/>
      <path id="Path_4107" data-name="Path 4107" d="M28.822,21.1a.229.229,0,1,1-.229.229.23.23,0,0,1,.229-.229" transform="translate(2021.883 -75.617)" fill="#0d0f17"/>
      <path id="Path_4108" data-name="Path 4108" d="M29.151,20.339a.23.23,0,1,1-.23.23.23.23,0,0,1,.23-.23" transform="translate(2021.883 -75.617)" fill="#0d0f17"/>
      <path id="Path_4109" data-name="Path 4109" d="M29.534,19.689a.232.232,0,1,1-.232.232.232.232,0,0,1,.232-.232" transform="translate(2021.883 -75.617)" fill="#0d0f17"/>
      <path id="Path_4110" data-name="Path 4110" d="M29.5,18.85a.228.228,0,1,1-.228.228.227.227,0,0,1,.228-.228" transform="translate(2021.883 -75.617)" fill="#0d0f17"/>
      <path id="Path_4111" data-name="Path 4111" d="M29.263,17.836a.219.219,0,1,1-.219.219.219.219,0,0,1,.219-.219" transform="translate(2021.883 -75.617)" fill="#0d0f17"/>
      <path id="Path_4112" data-name="Path 4112" d="M30.017,17.266a.23.23,0,1,1-.231.231.231.231,0,0,1,.231-.231" transform="translate(2021.883 -75.617)" fill="#0d0f17"/>
      <path id="Path_4113" data-name="Path 4113" d="M29.237,16.91a.217.217,0,1,1-.217.217.217.217,0,0,1,.217-.217" transform="translate(2021.883 -75.617)" fill="#0d0f17"/>
      <path id="Path_4114" data-name="Path 4114" d="M28.423,16.52a.194.194,0,1,1-.194.194.194.194,0,0,1,.194-.194" transform="translate(2021.883 -75.617)" fill="#0d0f17"/>
      <path id="Path_4115" data-name="Path 4115" d="M27.562,16.086a.164.164,0,1,1-.164.164.164.164,0,0,1,.164-.164" transform="translate(2021.883 -75.617)" fill="#0d0f17"/>
      <path id="Path_4116" data-name="Path 4116" d="M28.413,15.56a.192.192,0,1,1-.191.191.19.19,0,0,1,.191-.191" transform="translate(2021.883 -75.617)" fill="#0d0f17"/>
      <path id="Path_4117" data-name="Path 4117" d="M29.24,15.995a.215.215,0,1,1-.215.215.215.215,0,0,1,.215-.215" transform="translate(2021.883 -75.617)" fill="#0d0f17"/>
      <path id="Path_4118" data-name="Path 4118" d="M29.263,15.1a.215.215,0,1,1-.214.214.214.214,0,0,1,.214-.214" transform="translate(2021.883 -75.617)" fill="#0d0f17"/>
      <path id="Path_4119" data-name="Path 4119" d="M28.465,14.592a.195.195,0,1,1-.195.195.195.195,0,0,1,.195-.195" transform="translate(2021.883 -75.617)" fill="#0d0f17"/>
      <path id="Path_4120" data-name="Path 4120" d="M27.595,15.023a.164.164,0,1,1-.164.164.164.164,0,0,1,.164-.164" transform="translate(2021.883 -75.617)" fill="#0d0f17"/>
      <path id="Path_4121" data-name="Path 4121" d="M26.691,15.541a.133.133,0,1,1-.133.133.134.134,0,0,1,.133-.133" transform="translate(2021.883 -75.617)" fill="#0d0f17"/>
      <path id="Path_4122" data-name="Path 4122" d="M25.811,16.258a.1.1,0,1,1-.1.1.1.1,0,0,1,.1-.1" transform="translate(2021.883 -75.617)" fill="#0d0f17"/>
      <path id="Path_4123" data-name="Path 4123" d="M26.718,16.754a.136.136,0,1,1-.136.136.136.136,0,0,1,.136-.136" transform="translate(2021.883 -75.617)" fill="#0d0f17"/>
      <path id="Path_4124" data-name="Path 4124" d="M27.633,17.1a.172.172,0,1,1-.172.171.172.172,0,0,1,.172-.171" transform="translate(2021.883 -75.617)" fill="#0d0f17"/>
      <path id="Path_4125" data-name="Path 4125" d="M28.492,17.48a.2.2,0,1,1-.2.2.2.2,0,0,1,.2-.2" transform="translate(2021.883 -75.617)" fill="#0d0f17"/>
      <path id="Path_4126" data-name="Path 4126" d="M27.81,18.057a.183.183,0,1,1-.183.183.183.183,0,0,1,.183-.183" transform="translate(2021.883 -75.617)" fill="#0d0f17"/>
      <path id="Path_4127" data-name="Path 4127" d="M26.848,17.823a.146.146,0,1,1-.146.146.146.146,0,0,1,.146-.146" transform="translate(2021.883 -75.617)" fill="#0d0f17"/>
      <path id="Path_4128" data-name="Path 4128" d="M27.091,18.785a.164.164,0,1,1-.164.164.164.164,0,0,1,.164-.164" transform="translate(2021.883 -75.617)" fill="#0d0f17"/>
      <path id="Path_4129" data-name="Path 4129" d="M26.591,19.622a.155.155,0,1,1-.154.154.154.154,0,0,1,.154-.154" transform="translate(2021.883 -75.617)" fill="#0d0f17"/>
      <path id="Path_4130" data-name="Path 4130" d="M26.228,20.513a.156.156,0,1,1-.156.156.156.156,0,0,1,.156-.156" transform="translate(2021.883 -75.617)" fill="#0d0f17"/>
      <path id="Path_4131" data-name="Path 4131" d="M25.772,21.432a.157.157,0,1,1-.157.157.157.157,0,0,1,.157-.157" transform="translate(2021.883 -75.617)" fill="#0d0f17"/>
      <path id="Path_4132" data-name="Path 4132" d="M25.164,20.531a.124.124,0,1,1-.124.124.124.124,0,0,1,.124-.124" transform="translate(2021.883 -75.617)" fill="#0d0f17"/>
      <path id="Path_4133" data-name="Path 4133" d="M24.519,21.3a.119.119,0,1,1-.119.119.119.119,0,0,1,.119-.119" transform="translate(2021.883 -75.617)" fill="#0d0f17"/>
      <path id="Path_4134" data-name="Path 4134" d="M23.39,21.01a.082.082,0,1,1-.082.082.082.082,0,0,1,.082-.082" transform="translate(2021.883 -75.617)" fill="#0d0f17"/>
      <path id="Path_4135" data-name="Path 4135" d="M24.115,19.824a.082.082,0,1,1-.082.082.082.082,0,0,1,.082-.082" transform="translate(2021.883 -75.617)" fill="#0d0f17"/>
      <path id="Path_4136" data-name="Path 4136" d="M24.727,18.533a.085.085,0,1,1-.084.084.084.084,0,0,1,.084-.084" transform="translate(2021.883 -75.617)" fill="#0d0f17"/>
      <path id="Path_4137" data-name="Path 4137" d="M25.468,19.554a.118.118,0,1,1-.117.117.117.117,0,0,1,.117-.117" transform="translate(2021.883 -75.617)" fill="#0d0f17"/>
      <path id="Path_4138" data-name="Path 4138" d="M26.046,18.64a.127.127,0,1,1-.127.127.127.127,0,0,1,.127-.127" transform="translate(2021.883 -75.617)" fill="#0d0f17"/>
      <path id="Path_4139" data-name="Path 4139" d="M25.827,17.576a.111.111,0,1,1-.111.111.111.111,0,0,1,.111-.111" transform="translate(2021.883 -75.617)" fill="#0d0f17"/>
      <path id="Path_4140" data-name="Path 4140" d="M24.794,17.118a.076.076,0,0,1,.076.076.076.076,0,1,1-.152,0,.076.076,0,0,1,.076-.076" transform="translate(2021.883 -75.617)" fill="#0d0f17"/>
      <path id="Path_4141" data-name="Path 4141" d="M24.84,15.547a.075.075,0,1,1-.075.075.075.075,0,0,1,.075-.075" transform="translate(2021.883 -75.617)" fill="#0d0f17"/>
      <path id="Path_4142" data-name="Path 4142" d="M25.837,14.831a.1.1,0,1,1,0,.208.1.1,0,1,1,0-.208" transform="translate(2021.883 -75.617)" fill="#0d0f17"/>
      <path id="Path_4143" data-name="Path 4143" d="M26.8,14.346a.138.138,0,1,1-.138.138.138.138,0,0,1,.138-.138" transform="translate(2021.883 -75.617)" fill="#0d0f17"/>
      <path id="Path_4144" data-name="Path 4144" d="M27.713,13.953a.173.173,0,1,1-.173.173.173.173,0,0,1,.173-.173" transform="translate(2021.883 -75.617)" fill="#0d0f17"/>
      <path id="Path_4145" data-name="Path 4145" d="M28.576,13.633a.2.2,0,1,1-.2.2.2.2,0,0,1,.2-.2" transform="translate(2021.883 -75.617)" fill="#0d0f17"/>
      <path id="Path_4146" data-name="Path 4146" d="M29.382,13.375a.219.219,0,1,1-.219.219.219.219,0,0,1,.219-.219" transform="translate(2021.883 -75.617)" fill="#0d0f17"/>
      <path id="Path_4147" data-name="Path 4147" d="M28.941,12.671a.214.214,0,1,1-.213.214.213.213,0,0,1,.213-.214" transform="translate(2021.883 -75.617)" fill="#0d0f17"/>
      <path id="Path_4148" data-name="Path 4148" d="M28.411,11.994a.2.2,0,1,1-.2.2.2.2,0,0,1,.2-.2" transform="translate(2021.883 -75.617)" fill="#0d0f17"/>
      <path id="Path_4149" data-name="Path 4149" d="M28.758,11.17a.219.219,0,1,1-.219.218.218.218,0,0,1,.219-.218" transform="translate(2021.883 -75.617)" fill="#0d0f17"/>
      <path id="Path_4150" data-name="Path 4150" d="M28.3,10.354a.215.215,0,1,1-.214.214.214.214,0,0,1,.214-.214" transform="translate(2021.883 -75.617)" fill="#0d0f17"/>
      <path id="Path_4151" data-name="Path 4151" d="M27.867,9.517a.213.213,0,1,1-.213.213.213.213,0,0,1,.213-.213" transform="translate(2021.883 -75.617)" fill="#0d0f17"/>
      <path id="Path_4152" data-name="Path 4152" d="M28.4,8.706a.229.229,0,1,1-.229.229.229.229,0,0,1,.229-.229" transform="translate(2021.883 -75.617)" fill="#0d0f17"/>
      <path id="Path_4153" data-name="Path 4153" d="M28,7.9a.23.23,0,1,1-.23.23A.23.23,0,0,1,28,7.9" transform="translate(2021.883 -75.617)" fill="#0d0f17"/>
      <path id="Path_4154" data-name="Path 4154" d="M27.573,7.115a.231.231,0,1,1-.231.231.231.231,0,0,1,.231-.231" transform="translate(2021.883 -75.617)" fill="#0d0f17"/>
      <path id="Path_4155" data-name="Path 4155" d="M27,7.815a.215.215,0,1,1-.215.215A.215.215,0,0,1,27,7.815" transform="translate(2021.883 -75.617)" fill="#0d0f17"/>
      <path id="Path_4156" data-name="Path 4156" d="M26.448,8.616a.192.192,0,1,1-.192.192.192.192,0,0,1,.192-.192" transform="translate(2021.883 -75.617)" fill="#0d0f17"/>
      <path id="Path_4157" data-name="Path 4157" d="M27.437,8.666a.214.214,0,1,1-.213.213.214.214,0,0,1,.213-.213" transform="translate(2021.883 -75.617)" fill="#0d0f17"/>
      <path id="Path_4158" data-name="Path 4158" d="M26.9,9.511a.19.19,0,1,1-.19.19.19.19,0,0,1,.19-.19" transform="translate(2021.883 -75.617)" fill="#0d0f17"/>
      <path id="Path_4159" data-name="Path 4159" d="M27.34,10.394a.192.192,0,1,1-.191.191.191.191,0,0,1,.191-.191" transform="translate(2021.883 -75.617)" fill="#0d0f17"/>
      <path id="Path_4160" data-name="Path 4160" d="M27.809,11.241a.2.2,0,1,1-.195.195.195.195,0,0,1,.195-.195" transform="translate(2021.883 -75.617)" fill="#0d0f17"/>
      <path id="Path_4161" data-name="Path 4161" d="M27.388,12.173a.171.171,0,1,1-.171.171.171.171,0,0,1,.171-.171" transform="translate(2021.883 -75.617)" fill="#0d0f17"/>
      <path id="Path_4162" data-name="Path 4162" d="M28,12.916a.187.187,0,1,1-.187.187A.187.187,0,0,1,28,12.916" transform="translate(2021.883 -75.617)" fill="#0d0f17"/>
      <path id="Path_4163" data-name="Path 4163" d="M27.039,13.209a.151.151,0,1,1-.151.151.152.152,0,0,1,.151-.151" transform="translate(2021.883 -75.617)" fill="#0d0f17"/>
      <path id="Path_4164" data-name="Path 4164" d="M26.008,13.543a.115.115,0,1,1-.115.115.115.115,0,0,1,.115-.115" transform="translate(2021.883 -75.617)" fill="#0d0f17"/>
      <path id="Path_4165" data-name="Path 4165" d="M24.82,13.967a.076.076,0,1,1-.076.076.076.076,0,0,1,.076-.076" transform="translate(2021.883 -75.617)" fill="#0d0f17"/>
      <path id="Path_4166" data-name="Path 4166" d="M25.078,12.663a.095.095,0,1,1-.094.094.094.094,0,0,1,.094-.094" transform="translate(2021.883 -75.617)" fill="#0d0f17"/>
      <path id="Path_4167" data-name="Path 4167" d="M26.318,12.388a.134.134,0,1,1-.134.134.134.134,0,0,1,.134-.134" transform="translate(2021.883 -75.617)" fill="#0d0f17"/>
      <path id="Path_4168" data-name="Path 4168" d="M26.8,11.338a.162.162,0,1,1-.162.162.162.162,0,0,1,.162-.162" transform="translate(2021.883 -75.617)" fill="#0d0f17"/>
      <path id="Path_4169" data-name="Path 4169" d="M26.312,10.437a.158.158,0,1,1-.159.158.158.158,0,0,1,.159-.158" transform="translate(2021.883 -75.617)" fill="#0d0f17"/>
      <path id="Path_4170" data-name="Path 4170" d="M25.877,9.491a.161.161,0,1,1-.161.161.161.161,0,0,1,.161-.161" transform="translate(2021.883 -75.617)" fill="#0d0f17"/>
      <path id="Path_4171" data-name="Path 4171" d="M25.155,10.481a.121.121,0,1,1-.121.121.121.121,0,0,1,.121-.121" transform="translate(2021.883 -75.617)" fill="#0d0f17"/>
      <path id="Path_4172" data-name="Path 4172" d="M25.686,11.473a.123.123,0,1,1-.123.123.123.123,0,0,1,.123-.123" transform="translate(2021.883 -75.617)" fill="#0d0f17"/>
      <path id="Path_4173" data-name="Path 4173" d="M24.384,11.638a.085.085,0,1,1-.084.084.084.084,0,0,1,.084-.084" transform="translate(2021.883 -75.617)" fill="#0d0f17"/>
      <path id="Path_4174" data-name="Path 4174" d="M23.841,10.439a.087.087,0,1,1-.087.087.087.087,0,0,1,.087-.087" transform="translate(2021.883 -75.617)" fill="#0d0f17"/>
      <path id="Path_4175" data-name="Path 4175" d="M23.8,9.173a.108.108,0,1,1-.107.107.107.107,0,0,1,.107-.107" transform="translate(2021.883 -75.617)" fill="#0d0f17"/>
      <path id="Path_4176" data-name="Path 4176" d="M22.606,9.476a.075.075,0,1,1-.075.075.075.075,0,0,1,.075-.075" transform="translate(2021.883 -75.617)" fill="#0d0f17"/>
      <path id="Path_4177" data-name="Path 4177" d="M21.922,8.169a.086.086,0,1,1-.086.086.086.086,0,0,1,.086-.086" transform="translate(2021.883 -75.617)" fill="#0d0f17"/>
      <path id="Path_4178" data-name="Path 4178" d="M23.231,8.146a.114.114,0,1,1-.114.114.114.114,0,0,1,.114-.114" transform="translate(2021.883 -75.617)" fill="#0d0f17"/>
      <path id="Path_4179" data-name="Path 4179" d="M22.932,7.057a.136.136,0,1,1-.135.135.135.135,0,0,1,.135-.135" transform="translate(2021.883 -75.617)" fill="#0d0f17"/>
      <path id="Path_4180" data-name="Path 4180" d="M21.871,6.915a.116.116,0,1,1-.116.116.116.116,0,0,1,.116-.116" transform="translate(2021.883 -75.617)" fill="#0d0f17"/>
      <path id="Path_4181" data-name="Path 4181" d="M21.2,6.085a.127.127,0,1,1-.126.126.126.126,0,0,1,.126-.126" transform="translate(2021.883 -75.617)" fill="#0d0f17"/>
      <path id="Path_4182" data-name="Path 4182" d="M21.808,5.212a.162.162,0,1,1-.162.162.162.162,0,0,1,.162-.162" transform="translate(2021.883 -75.617)" fill="#0d0f17"/>
      <path id="Path_4183" data-name="Path 4183" d="M22.567,5.955a.155.155,0,1,1-.155.155.154.154,0,0,1,.155-.155" transform="translate(2021.883 -75.617)" fill="#0d0f17"/>
      <path id="Path_4184" data-name="Path 4184" d="M22.634,4.756a.192.192,0,1,1-.191.191.191.191,0,0,1,.191-.191" transform="translate(2021.883 -75.617)" fill="#0d0f17"/>
      <path id="Path_4185" data-name="Path 4185" d="M22.687,3.8a.212.212,0,1,1-.212.212.212.212,0,0,1,.212-.212" transform="translate(2021.883 -75.617)" fill="#0d0f17"/>
      <path id="Path_4186" data-name="Path 4186" d="M23.5,4.233a.215.215,0,1,1-.214.214.214.214,0,0,1,.214-.214" transform="translate(2021.883 -75.617)" fill="#0d0f17"/>
      <path id="Path_4187" data-name="Path 4187" d="M24.193,4.711a.215.215,0,1,1-.214.214.214.214,0,0,1,.214-.214" transform="translate(2021.883 -75.617)" fill="#0d0f17"/>
      <path id="Path_4188" data-name="Path 4188" d="M23.429,5.3a.191.191,0,1,1-.191.191.191.191,0,0,1,.191-.191" transform="translate(2021.883 -75.617)" fill="#0d0f17"/>
      <path id="Path_4189" data-name="Path 4189" d="M23.677,6.253a.172.172,0,1,1-.172.172.173.173,0,0,1,.172-.172" transform="translate(2021.883 -75.617)" fill="#0d0f17"/>
      <path id="Path_4190" data-name="Path 4190" d="M24.021,7.258a.155.155,0,1,1-.153.154.154.154,0,0,1,.153-.154" transform="translate(2021.883 -75.617)" fill="#0d0f17"/>
      <path id="Path_4191" data-name="Path 4191" d="M24.73,6.494a.191.191,0,1,1-.19.19.191.191,0,0,1,.19-.19" transform="translate(2021.883 -75.617)" fill="#0d0f17"/>
      <path id="Path_4192" data-name="Path 4192" d="M24.444,5.579a.2.2,0,1,1-.2.2.2.2,0,0,1,.2-.2" transform="translate(2021.883 -75.617)" fill="#0d0f17"/>
      <path id="Path_4193" data-name="Path 4193" d="M25.39,5.723a.215.215,0,1,1-.215.215.215.215,0,0,1,.215-.215" transform="translate(2021.883 -75.617)" fill="#0d0f17"/>
      <path id="Path_4194" data-name="Path 4194" d="M25.717,6.641a.209.209,0,1,1-.208.208.209.209,0,0,1,.208-.208" transform="translate(2021.883 -75.617)" fill="#0d0f17"/>
      <path id="Path_4195" data-name="Path 4195" d="M25.09,7.44a.179.179,0,1,1-.179.179.179.179,0,0,1,.179-.179" transform="translate(2021.883 -75.617)" fill="#0d0f17"/>
      <path id="Path_4196" data-name="Path 4196" d="M24.433,8.262a.141.141,0,1,1-.141.141.141.141,0,0,1,.141-.141" transform="translate(2021.883 -75.617)" fill="#0d0f17"/>
      <path id="Path_4197" data-name="Path 4197" d="M24.834,9.414a.129.129,0,1,1-.129.129.129.129,0,0,1,.129-.129" transform="translate(2021.883 -75.617)" fill="#0d0f17"/>
      <path id="Path_4198" data-name="Path 4198" d="M25.447,8.486a.165.165,0,1,1-.165.165.165.165,0,0,1,.165-.165" transform="translate(2021.883 -75.617)" fill="#0d0f17"/>
      <path id="Path_4199" data-name="Path 4199" d="M26.033,7.675a.2.2,0,1,1-.2.2.2.2,0,0,1,.2-.2" transform="translate(2021.883 -75.617)" fill="#0d0f17"/>
      <path id="Path_4200" data-name="Path 4200" d="M26.587,6.932a.219.219,0,1,1-.219.218.218.218,0,0,1,.219-.218" transform="translate(2021.883 -75.617)" fill="#0d0f17"/>
      <path id="Path_4201" data-name="Path 4201" d="M27.146,6.323a.233.233,0,1,1-.232.232.232.232,0,0,1,.232-.232" transform="translate(2021.883 -75.617)" fill="#0d0f17"/>
      <path id="Path_4202" data-name="Path 4202" d="M26.359,5.871a.228.228,0,1,1-.227.227.228.228,0,0,1,.227-.227" transform="translate(2021.883 -75.617)" fill="#0d0f17"/>
      <path id="Path_4203" data-name="Path 4203" d="M25.9,4.955a.233.233,0,1,1-.232.232.232.232,0,0,1,.232-.232" transform="translate(2021.883 -75.617)" fill="#0d0f17"/>
      <path id="Path_4204" data-name="Path 4204" d="M25.044,4.749a.225.225,0,1,1-.225.225.225.225,0,0,1,.225-.225" transform="translate(2021.883 -75.617)" fill="#0d0f17"/>
      <path id="Path_4205" data-name="Path 4205" d="M24.485,3.831a.231.231,0,1,1-.231.231.23.23,0,0,1,.231-.231" transform="translate(2021.883 -75.617)" fill="#0d0f17"/>
      <path id="Path_4206" data-name="Path 4206" d="M23.581,3.321a.229.229,0,1,1-.229.229.23.23,0,0,1,.229-.229" transform="translate(2021.883 -75.617)" fill="#0d0f17"/>
      <path id="Path_4207" data-name="Path 4207" d="M22.806,2.794a.23.23,0,1,1-.23.23.23.23,0,0,1,.23-.23" transform="translate(2021.883 -75.617)" fill="#0d0f17"/>
      <path id="Path_4208" data-name="Path 4208" d="M21.855,2.306a.23.23,0,1,1-.23.23.23.23,0,0,1,.23-.23" transform="translate(2021.883 -75.617)" fill="#0d0f17"/>
      <path id="Path_4209" data-name="Path 4209" d="M20.868,2.208a.224.224,0,1,1-.224.224.224.224,0,0,1,.224-.224" transform="translate(2021.883 -75.617)" fill="#0d0f17"/>
      <path id="Path_4210" data-name="Path 4210" d="M20.261,2.991a.2.2,0,1,1-.2.2.2.2,0,0,1,.2-.2" transform="translate(2021.883 -75.617)" fill="#0d0f17"/>
      <path id="Path_4211" data-name="Path 4211" d="M21.181,3.142a.21.21,0,1,1-.21.21.21.21,0,0,1,.21-.21" transform="translate(2021.883 -75.617)" fill="#0d0f17"/>
      <path id="Path_4212" data-name="Path 4212" d="M22.021,3.227a.216.216,0,1,1-.216.216.216.216,0,0,1,.216-.216" transform="translate(2021.883 -75.617)" fill="#0d0f17"/>
      <path id="Path_4213" data-name="Path 4213" d="M21.68,4.172a.192.192,0,1,1-.191.191.191.191,0,0,1,.191-.191" transform="translate(2021.883 -75.617)" fill="#0d0f17"/>
      <path id="Path_4214" data-name="Path 4214" d="M20.651,4a.181.181,0,1,1-.181.181A.181.181,0,0,1,20.651,4" transform="translate(2021.883 -75.617)" fill="#0d0f17"/>
      <path id="Path_4215" data-name="Path 4215" d="M20.8,5.005a.151.151,0,1,1-.151.151.152.152,0,0,1,.151-.151" transform="translate(2021.883 -75.617)" fill="#0d0f17"/>
      <path id="Path_4216" data-name="Path 4216" d="M19.723,4.874a.141.141,0,1,1-.14.14.14.14,0,0,1,.14-.14" transform="translate(2021.883 -75.617)" fill="#0d0f17"/>
      <path id="Path_4217" data-name="Path 4217" d="M19.678,3.819a.176.176,0,1,1-.176.176.176.176,0,0,1,.176-.176" transform="translate(2021.883 -75.617)" fill="#0d0f17"/>
      <path id="Path_4218" data-name="Path 4218" d="M18.679,4.508a.14.14,0,1,1-.139.139.14.14,0,0,1,.139-.139" transform="translate(2021.883 -75.617)" fill="#0d0f17"/>
      <path id="Path_4219" data-name="Path 4219" d="M18.635,5.616a.106.106,0,1,1-.107.106.106.106,0,0,1,.107-.106" transform="translate(2021.883 -75.617)" fill="#0d0f17"/>
      <path id="Path_4220" data-name="Path 4220" d="M20,6a.11.11,0,1,1-.11.11A.11.11,0,0,1,20,6" transform="translate(2021.883 -75.617)" fill="#0d0f17"/>
      <path id="Path_4221" data-name="Path 4221" d="M20.579,7.322a.084.084,0,1,1-.084.084.084.084,0,0,1,.084-.084" transform="translate(2021.883 -75.617)" fill="#0d0f17"/>
      <path id="Path_4222" data-name="Path 4222" d="M18.962,6.855a.076.076,0,1,1-.075.075.075.075,0,0,1,.075-.075" transform="translate(2021.883 -75.617)" fill="#0d0f17"/>
      <path id="Path_4223" data-name="Path 4223" d="M17.25,6.018a.085.085,0,0,1,.084.084.084.084,0,0,1-.168,0,.085.085,0,0,1,.084-.084" transform="translate(2021.883 -75.617)" fill="#0d0f17"/>
      <path id="Path_4224" data-name="Path 4224" d="M17.552,4.775a.123.123,0,1,1-.123.123.122.122,0,0,1,.123-.123" transform="translate(2021.883 -75.617)" fill="#0d0f17"/>
      <path id="Path_4225" data-name="Path 4225" d="M17.8,3.685a.16.16,0,1,1-.16.16.16.16,0,0,1,.16-.16" transform="translate(2021.883 -75.617)" fill="#0d0f17"/>
      <path id="Path_4226" data-name="Path 4226" d="M18.753,3.538a.173.173,0,1,1-.173.173.173.173,0,0,1,.173-.173" transform="translate(2021.883 -75.617)" fill="#0d0f17"/>
      <path id="Path_4227" data-name="Path 4227" d="M19.292,2.807a.2.2,0,1,1-.2.2.2.2,0,0,1,.2-.2" transform="translate(2021.883 -75.617)" fill="#0d0f17"/>
      <path id="Path_4228" data-name="Path 4228" d="M19.82,2.1a.221.221,0,1,1-.221.221A.221.221,0,0,1,19.82,2.1" transform="translate(2021.883 -75.617)" fill="#0d0f17"/>
      <path id="Path_4229" data-name="Path 4229" d="M20.313,1.422a.233.233,0,1,1-.233.233.233.233,0,0,1,.233-.233" transform="translate(2021.883 -75.617)" fill="#0d0f17"/>
      <path id="Path_4230" data-name="Path 4230" d="M20.742.729a.224.224,0,1,1-.224.224.224.224,0,0,1,.224-.224" transform="translate(2021.883 -75.617)" fill="#0d0f17"/>
      <path id="Path_4231" data-name="Path 4231" d="M21.321,1.36a.238.238,0,1,1-.237.237.237.237,0,0,1,.237-.237" transform="translate(2021.883 -75.617)" fill="#0d0f17"/>
      <path id="Path_4232" data-name="Path 4232" d="M22.124,1.443a.239.239,0,1,1-.239.239.239.239,0,0,1,.239-.239" transform="translate(2021.883 -75.617)" fill="#0d0f17"/>
      <path id="Path_4233" data-name="Path 4233" d="M22.827,1.918a.238.238,0,1,1-.238.238.238.238,0,0,1,.238-.238" transform="translate(2021.883 -75.617)" fill="#0d0f17"/>
      <path id="Path_4234" data-name="Path 4234" d="M23.642,2.307a.239.239,0,1,1-.239.239.239.239,0,0,1,.239-.239" transform="translate(2021.883 -75.617)" fill="#0d0f17"/>
      <path id="Path_4235" data-name="Path 4235" d="M24.334,2.859A.238.238,0,1,1,24.1,3.1a.238.238,0,0,1,.238-.238" transform="translate(2021.883 -75.617)" fill="#0d0f17"/>
      <path id="Path_4236" data-name="Path 4236" d="M25.158,3.172a.226.226,0,1,1-.226.226.226.226,0,0,1,.226-.226" transform="translate(2021.883 -75.617)" fill="#0d0f17"/>
      <path id="Path_4237" data-name="Path 4237" d="M25.5,3.959a.238.238,0,1,1-.237.237.237.237,0,0,1,.237-.237" transform="translate(2021.883 -75.617)" fill="#0d0f17"/>
      <path id="Path_4238" data-name="Path 4238" d="M26.344,4.176a.236.236,0,1,1-.236.236.236.236,0,0,1,.236-.236" transform="translate(2021.883 -75.617)" fill="#0d0f17"/>
      <path id="Path_4239" data-name="Path 4239" d="M26.773,5.018a.238.238,0,1,1-.238.238.239.239,0,0,1,.238-.238" transform="translate(2021.883 -75.617)" fill="#0d0f17"/>
      <path id="Path_4240" data-name="Path 4240" d="M27.423,5.579a.239.239,0,1,1-.239.239.239.239,0,0,1,.239-.239" transform="translate(2021.883 -75.617)" fill="#0d0f17"/>
      <path id="Path_4241" data-name="Path 4241" d="M28.044,6.348a.239.239,0,1,1-.239.239.239.239,0,0,1,.239-.239" transform="translate(2021.883 -75.617)" fill="#0d0f17"/>
      <path id="Path_4242" data-name="Path 4242" d="M28.562,7.127a.238.238,0,1,1-.238.238.238.238,0,0,1,.238-.238" transform="translate(2021.883 -75.617)" fill="#0d0f17"/>
      <path id="Path_4243" data-name="Path 4243" d="M28.969,7.947a.238.238,0,1,1-.238.238.238.238,0,0,1,.238-.238" transform="translate(2021.883 -75.617)" fill="#0d0f17"/>
      <path id="Path_4244" data-name="Path 4244" d="M29.354,8.745a.238.238,0,1,1-.238.238.238.238,0,0,1,.238-.238" transform="translate(2021.883 -75.617)" fill="#0d0f17"/>
      <path id="Path_4245" data-name="Path 4245" d="M28.813,9.5a.229.229,0,1,1-.229.229.229.229,0,0,1,.229-.229" transform="translate(2021.883 -75.617)" fill="#0d0f17"/>
      <path id="Path_4246" data-name="Path 4246" d="M29.214,10.288a.23.23,0,1,1-.23.23.23.23,0,0,1,.23-.23" transform="translate(2021.883 -75.617)" fill="#0d0f17"/>
      <path id="Path_4247" data-name="Path 4247" d="M29.746,9.546a.239.239,0,1,1-.239.239.239.239,0,0,1,.239-.239" transform="translate(2021.883 -75.617)" fill="#0d0f17"/>
      <path id="Path_4248" data-name="Path 4248" d="M30.152,10.39a.239.239,0,1,1-.239.239.239.239,0,0,1,.239-.239" transform="translate(2021.883 -75.617)" fill="#0d0f17"/>
      <path id="Path_4249" data-name="Path 4249" d="M30.327,11.349a.238.238,0,1,1-.238.238.238.238,0,0,1,.238-.238" transform="translate(2021.883 -75.617)" fill="#0d0f17"/>
      <path id="Path_4250" data-name="Path 4250" d="M29.581,11.047a.233.233,0,1,1-.232.232.232.232,0,0,1,.232-.232" transform="translate(2021.883 -75.617)" fill="#0d0f17"/>
      <path id="Path_4251" data-name="Path 4251" d="M29.481,11.906a.229.229,0,1,1-.228.228.228.228,0,0,1,.228-.228" transform="translate(2021.883 -75.617)" fill="#0d0f17"/>
      <path id="Path_4252" data-name="Path 4252" d="M29.906,12.728a.231.231,0,1,1-.231.231.23.23,0,0,1,.231-.231" transform="translate(2021.883 -75.617)" fill="#0d0f17"/>
      <path id="Path_4253" data-name="Path 4253" d="M30.5,12.173a.238.238,0,1,1-.238.238.239.239,0,0,1,.238-.238" transform="translate(2021.883 -75.617)" fill="#0d0f17"/>
      <path id="Path_4254" data-name="Path 4254" d="M30.76,13.1a.239.239,0,1,1-.239.239.239.239,0,0,1,.239-.239" transform="translate(2021.883 -75.617)" fill="#0d0f17"/>
      <path id="Path_4255" data-name="Path 4255" d="M30.864,14.1a.239.239,0,1,1-.239.239.239.239,0,0,1,.239-.239" transform="translate(2021.883 -75.617)" fill="#0d0f17"/>
      <path id="Path_4256" data-name="Path 4256" d="M30.134,13.681a.233.233,0,1,1-.232.232.232.232,0,0,1,.232-.232" transform="translate(2021.883 -75.617)" fill="#0d0f17"/>
      <path id="Path_4257" data-name="Path 4257" d="M29.324,14.217a.218.218,0,1,1-.217.218.218.218,0,0,1,.217-.218" transform="translate(2021.883 -75.617)" fill="#0d0f17"/>
      <path id="Path_4258" data-name="Path 4258" d="M30.1,14.611a.23.23,0,1,1-.23.23.23.23,0,0,1,.23-.23" transform="translate(2021.883 -75.617)" fill="#0d0f17"/>
      <path id="Path_4259" data-name="Path 4259" d="M30.863,15.054a.238.238,0,1,1-.238.238.238.238,0,0,1,.238-.238" transform="translate(2021.883 -75.617)" fill="#0d0f17"/>
      <path id="Path_4260" data-name="Path 4260" d="M30.836,15.943a.238.238,0,1,1-.238.238.238.238,0,0,1,.238-.238" transform="translate(2021.883 -75.617)" fill="#0d0f17"/>
      <path id="Path_4261" data-name="Path 4261" d="M30.057,15.507a.229.229,0,1,1-.229.229.23.23,0,0,1,.229-.229" transform="translate(2021.883 -75.617)" fill="#0d0f17"/>
      <path id="Path_4262" data-name="Path 4262" d="M30.038,16.4a.23.23,0,1,1-.23.23.23.23,0,0,1,.23-.23" transform="translate(2021.883 -75.617)" fill="#0d0f17"/>
      <path id="Path_4263" data-name="Path 4263" d="M30.813,16.851a.238.238,0,1,1-.238.238.238.238,0,0,1,.238-.238" transform="translate(2021.883 -75.617)" fill="#0d0f17"/>
      <path id="Path_4264" data-name="Path 4264" d="M30.723,17.746a.239.239,0,1,1-.239.239.239.239,0,0,1,.239-.239" transform="translate(2021.883 -75.617)" fill="#0d0f17"/>
      <path id="Path_4265" data-name="Path 4265" d="M29.961,18.129a.233.233,0,1,1-.232.232.232.232,0,0,1,.232-.232" transform="translate(2021.883 -75.617)" fill="#0d0f17"/>
      <path id="Path_4266" data-name="Path 4266" d="M30.514,18.647a.239.239,0,1,1-.239.239.239.239,0,0,1,.239-.239" transform="translate(2021.883 -75.617)" fill="#0d0f17"/>
      <path id="Path_4267" data-name="Path 4267" d="M30.272,19.42a.238.238,0,1,1-.238.238.239.239,0,0,1,.238-.238" transform="translate(2021.883 -75.617)" fill="#0d0f17"/>
      <path id="Path_4268" data-name="Path 4268" d="M30.189,20.339a.235.235,0,1,1-.235.235.235.235,0,0,1,.235-.235" transform="translate(2021.883 -75.617)" fill="#0d0f17"/>
      <path id="Path_4269" data-name="Path 4269" d="M29.668,21.013a.238.238,0,1,1-.238.238.238.238,0,0,1,.238-.238" transform="translate(2021.883 -75.617)" fill="#0d0f17"/>
      <path id="Path_4270" data-name="Path 4270" d="M29.515,21.847a.239.239,0,1,1-.239.239.239.239,0,0,1,.239-.239" transform="translate(2021.883 -75.617)" fill="#0d0f17"/>
      <path id="Path_4271" data-name="Path 4271" d="M28.986,22.521a.238.238,0,1,1-.237.237.236.236,0,0,1,.237-.237" transform="translate(2021.883 -75.617)" fill="#0d0f17"/>
      <path id="Path_4272" data-name="Path 4272" d="M28.745,23.362a.239.239,0,1,1-.239.239.239.239,0,0,1,.239-.239" transform="translate(2021.883 -75.617)" fill="#0d0f17"/>
      <path id="Path_4273" data-name="Path 4273" d="M28.054,24.093a.238.238,0,1,1-.238.238.238.238,0,0,1,.238-.238" transform="translate(2021.883 -75.617)" fill="#0d0f17"/>
      <path id="Path_4274" data-name="Path 4274" d="M27.59,24.781a.238.238,0,1,1-.238.238.238.238,0,0,1,.238-.238" transform="translate(2021.883 -75.617)" fill="#0d0f17"/>
      <path id="Path_4275" data-name="Path 4275" d="M27.046,25.543a.238.238,0,1,1-.238.238.238.238,0,0,1,.238-.238" transform="translate(2021.883 -75.617)" fill="#0d0f17"/>
      <path id="Path_4276" data-name="Path 4276" d="M26.293,25.353a.233.233,0,1,1-.232.232.232.232,0,0,1,.232-.232" transform="translate(2021.883 -75.617)" fill="#0d0f17"/>
      <path id="Path_4277" data-name="Path 4277" d="M26.265,26.191a.238.238,0,1,1-.237.237.237.237,0,0,1,.237-.237" transform="translate(2021.883 -75.617)" fill="#0d0f17"/>
      <path id="Path_4278" data-name="Path 4278" d="M25.714,26.853a.238.238,0,1,1-.238.238.238.238,0,0,1,.238-.238" transform="translate(2021.883 -75.617)" fill="#0d0f17"/>
      <path id="Path_4279" data-name="Path 4279" d="M25.194,26.3a.231.231,0,1,1-.231.231.23.23,0,0,1,.231-.231" transform="translate(2021.883 -75.617)" fill="#0d0f17"/>
      <path id="Path_4280" data-name="Path 4280" d="M24.952,27.18a.238.238,0,1,1-.237.237.237.237,0,0,1,.237-.237" transform="translate(2021.883 -75.617)" fill="#0d0f17"/>
      <path id="Path_4281" data-name="Path 4281" d="M24.552,27.87a.239.239,0,1,1-.239.239.239.239,0,0,1,.239-.239" transform="translate(2021.883 -75.617)" fill="#0d0f17"/>
      <path id="Path_4282" data-name="Path 4282" d="M23.738,28.2a.238.238,0,1,1-.238.238.239.239,0,0,1,.238-.238" transform="translate(2021.883 -75.617)" fill="#0d0f17"/>
      <path id="Path_4283" data-name="Path 4283" d="M22.975,28.47a.237.237,0,1,1-.236.236.237.237,0,0,1,.236-.236" transform="translate(2021.883 -75.617)" fill="#0d0f17"/>
      <path id="Path_4284" data-name="Path 4284" d="M22.492,29.09a.239.239,0,1,1-.239.239.239.239,0,0,1,.239-.239" transform="translate(2021.883 -75.617)" fill="#0d0f17"/>
      <path id="Path_4285" data-name="Path 4285" d="M21.92,28.514a.231.231,0,1,1-.231.231.231.231,0,0,1,.231-.231" transform="translate(2021.883 -75.617)" fill="#0d0f17"/>
      <path id="Path_4286" data-name="Path 4286" d="M21.645,29.344a.238.238,0,1,1-.237.237.237.237,0,0,1,.237-.237" transform="translate(2021.883 -75.617)" fill="#0d0f17"/>
      <path id="Path_4287" data-name="Path 4287" d="M21,28.76a.229.229,0,1,1-.229.229A.23.23,0,0,1,21,28.76" transform="translate(2021.883 -75.617)" fill="#0d0f17"/>
      <path id="Path_4288" data-name="Path 4288" d="M20.855,29.651a.238.238,0,1,1-.238.238.239.239,0,0,1,.238-.238" transform="translate(2021.883 -75.617)" fill="#0d0f17"/>
      <path id="Path_4289" data-name="Path 4289" d="M20.062,29.915a.238.238,0,1,1-.238.238.238.238,0,0,1,.238-.238" transform="translate(2021.883 -75.617)" fill="#0d0f17"/>
      <path id="Path_4290" data-name="Path 4290" d="M19.275,30.116a.238.238,0,1,1-.238.238.238.238,0,0,1,.238-.238" transform="translate(2021.883 -75.617)" fill="#0d0f17"/>
      <path id="Path_4291" data-name="Path 4291" d="M18.54,30.538a.229.229,0,1,1-.229.229.23.23,0,0,1,.229-.229" transform="translate(2021.883 -75.617)" fill="#0d0f17"/>
      <path id="Path_4292" data-name="Path 4292" d="M17.809,30.223a.237.237,0,1,1-.237.237.237.237,0,0,1,.237-.237" transform="translate(2021.883 -75.617)" fill="#0d0f17"/>
      <path id="Path_4293" data-name="Path 4293" d="M17.126,30.618a.238.238,0,1,1-.238.238.238.238,0,0,1,.238-.238" transform="translate(2021.883 -75.617)" fill="#0d0f17"/>
      <path id="Path_4294" data-name="Path 4294" d="M16.344,30.422a.237.237,0,1,1-.237.237.236.236,0,0,1,.237-.237" transform="translate(2021.883 -75.617)" fill="#0d0f17"/>
      <path id="Path_4295" data-name="Path 4295" d="M15.625,30.76a.237.237,0,1,1-.237.237.237.237,0,0,1,.237-.237" transform="translate(2021.883 -75.617)" fill="#0d0f17"/>
      <path id="Path_4296" data-name="Path 4296" d="M15.477,30a.232.232,0,1,1-.232.231A.232.232,0,0,1,15.477,30" transform="translate(2021.883 -75.617)" fill="#0d0f17"/>
      <path id="Path_4297" data-name="Path 4297" d="M15.293,29.194a.219.219,0,1,1-.218.218.218.218,0,0,1,.218-.218" transform="translate(2021.883 -75.617)" fill="#0d0f17"/>
      <path id="Path_4298" data-name="Path 4298" d="M15.118,28.364a.2.2,0,1,1-.2.2.2.2,0,0,1,.2-.2" transform="translate(2021.883 -75.617)" fill="#0d0f17"/>
      <path id="Path_4299" data-name="Path 4299" d="M14.826,27.472a.164.164,0,1,1-.164.164.164.164,0,0,1,.164-.164" transform="translate(2021.883 -75.617)" fill="#0d0f17"/>
      <path id="Path_4300" data-name="Path 4300" d="M13.772,27.508a.172.172,0,1,1-.172.171.171.171,0,0,1,.172-.171" transform="translate(2021.883 -75.617)" fill="#0d0f17"/>
      <path id="Path_4301" data-name="Path 4301" d="M14.223,28.191a.194.194,0,1,1-.194.194.194.194,0,0,1,.194-.194" transform="translate(2021.883 -75.617)" fill="#0d0f17"/>
      <path id="Path_4302" data-name="Path 4302" d="M14.383,29.012a.214.214,0,1,1-.213.214.213.213,0,0,1,.213-.214" transform="translate(2021.883 -75.617)" fill="#0d0f17"/>
      <path id="Path_4303" data-name="Path 4303" d="M14.59,29.823a.23.23,0,1,1-.229.23.23.23,0,0,1,.229-.23" transform="translate(2021.883 -75.617)" fill="#0d0f17"/>
      <path id="Path_4304" data-name="Path 4304" d="M14.776,30.625a.238.238,0,1,1-.238.238.238.238,0,0,1,.238-.238" transform="translate(2021.883 -75.617)" fill="#0d0f17"/>
      <path id="Path_4305" data-name="Path 4305" d="M13.936,30.5a.238.238,0,1,1-.238.238.238.238,0,0,1,.238-.238" transform="translate(2021.883 -75.617)" fill="#0d0f17"/>
      <path id="Path_4306" data-name="Path 4306" d="M13.109,30.381a.238.238,0,1,1-.238.238.239.239,0,0,1,.238-.238" transform="translate(2021.883 -75.617)" fill="#0d0f17"/>
      <path id="Path_4307" data-name="Path 4307" d="M12.893,29.5a.229.229,0,1,1-.229.229.23.23,0,0,1,.229-.229" transform="translate(2021.883 -75.617)" fill="#0d0f17"/>
      <path id="Path_4308" data-name="Path 4308" d="M13.715,29.617a.228.228,0,1,1-.228.228.227.227,0,0,1,.228-.228" transform="translate(2021.883 -75.617)" fill="#0d0f17"/>
      <path id="Path_4309" data-name="Path 4309" d="M13.487,28.668a.21.21,0,1,1-.209.209.209.209,0,0,1,.209-.209" transform="translate(2021.883 -75.617)" fill="#0d0f17"/>
      <path id="Path_4310" data-name="Path 4310" d="M12.627,28.659a.214.214,0,1,1-.214.214.213.213,0,0,1,.214-.214" transform="translate(2021.883 -75.617)" fill="#0d0f17"/>
      <path id="Path_4311" data-name="Path 4311" d="M11.792,28.7a.218.218,0,1,1-.218.218.218.218,0,0,1,.218-.218" transform="translate(2021.883 -75.617)" fill="#0d0f17"/>
      <path id="Path_4312" data-name="Path 4312" d="M12.026,29.457a.23.23,0,1,1-.231.231.23.23,0,0,1,.231-.231" transform="translate(2021.883 -75.617)" fill="#0d0f17"/>
      <path id="Path_4313" data-name="Path 4313" d="M12.268,30.252a.238.238,0,1,1-.238.238.238.238,0,0,1,.238-.238" transform="translate(2021.883 -75.617)" fill="#0d0f17"/>
      <path id="Path_4314" data-name="Path 4314" d="M11.362,30.061a.238.238,0,1,1-.238.238.239.239,0,0,1,.238-.238" transform="translate(2021.883 -75.617)" fill="#0d0f17"/>
      <path id="Path_4315" data-name="Path 4315" d="M10.467,29.778a.238.238,0,1,1-.238.238.238.238,0,0,1,.238-.238" transform="translate(2021.883 -75.617)" fill="#0d0f17"/>
      <path id="Path_4316" data-name="Path 4316" d="M9.656,29.4a.238.238,0,1,1-.238.238.238.238,0,0,1,.238-.238" transform="translate(2021.883 -75.617)" fill="#0d0f17"/>
      <path id="Path_4317" data-name="Path 4317" d="M8.856,29.058a.238.238,0,1,1-.238.238.238.238,0,0,1,.238-.238" transform="translate(2021.883 -75.617)" fill="#0d0f17"/>
      <path id="Path_4318" data-name="Path 4318" d="M8.1,28.653a.238.238,0,1,1-.238.238.238.238,0,0,1,.238-.238" transform="translate(2021.883 -75.617)" fill="#0d0f17"/>
      <path id="Path_4319" data-name="Path 4319" d="M7.313,28.249a.238.238,0,1,1-.238.238.238.238,0,0,1,.238-.238" transform="translate(2021.883 -75.617)" fill="#0d0f17"/>
      <path id="Path_4320" data-name="Path 4320" d="M7.248,27.319a.231.231,0,1,1-.231.231.231.231,0,0,1,.231-.231" transform="translate(2021.883 -75.617)" fill="#0d0f17"/>
      <path id="Path_4321" data-name="Path 4321" d="M6.493,27.792a.239.239,0,1,1-.239.239.239.239,0,0,1,.239-.239" transform="translate(2021.883 -75.617)" fill="#0d0f17"/>
      <path id="Path_4322" data-name="Path 4322" d="M6.44,26.968a.234.234,0,1,1-.234.234.234.234,0,0,1,.234-.234" transform="translate(2021.883 -75.617)" fill="#0d0f17"/>
      <path id="Path_4323" data-name="Path 4323" d="M6.042,26.211a.229.229,0,1,1-.229.229.23.23,0,0,1,.229-.229" transform="translate(2021.883 -75.617)" fill="#0d0f17"/>
      <path id="Path_4324" data-name="Path 4324" d="M5.639,27.111a.239.239,0,1,1-.239.239.239.239,0,0,1,.239-.239" transform="translate(2021.883 -75.617)" fill="#0d0f17"/>
      <path id="Path_4325" data-name="Path 4325" d="M5.1,26.418a.238.238,0,1,1-.238.238.239.239,0,0,1,.238-.238" transform="translate(2021.883 -75.617)" fill="#0d0f17"/>
      <path id="Path_4326" data-name="Path 4326" d="M5.266,25.565a.23.23,0,1,1-.23.23.23.23,0,0,1,.23-.23" transform="translate(2021.883 -75.617)" fill="#0d0f17"/>
      <path id="Path_4327" data-name="Path 4327" d="M4.386,25.81a.238.238,0,1,1-.238.238.238.238,0,0,1,.238-.238" transform="translate(2021.883 -75.617)" fill="#0d0f17"/>
      <path id="Path_4328" data-name="Path 4328" d="M3.793,25.114a.238.238,0,1,1-.238.238.238.238,0,0,1,.238-.238" transform="translate(2021.883 -75.617)" fill="#0d0f17"/>
      <path id="Path_4329" data-name="Path 4329" d="M3.291,24.393a.238.238,0,1,1-.238.238.238.238,0,0,1,.238-.238" transform="translate(2021.883 -75.617)" fill="#0d0f17"/>
      <path id="Path_4330" data-name="Path 4330" d="M2.724,23.736a.239.239,0,1,1-.239.239.239.239,0,0,1,.239-.239" transform="translate(2021.883 -75.617)" fill="#0d0f17"/>
      <path id="Path_4331" data-name="Path 4331" d="M2.351,22.948a.238.238,0,1,1-.238.238.238.238,0,0,1,.238-.238" transform="translate(2021.883 -75.617)" fill="#0d0f17"/>
      <path id="Path_4332" data-name="Path 4332" d="M1.76,22.314a.228.228,0,1,1-.227.227.227.227,0,0,1,.227-.227" transform="translate(2021.883 -75.617)" fill="#0d0f17"/>
      <path id="Path_4333" data-name="Path 4333" d="M2.537,22a.233.233,0,1,1-.232.232A.232.232,0,0,1,2.537,22" transform="translate(2021.883 -75.617)" fill="#0d0f17"/>
      <path id="Path_4334" data-name="Path 4334" d="M2.63,21.093a.225.225,0,1,1-.225.225.225.225,0,0,1,.225-.225" transform="translate(2021.883 -75.617)" fill="#0d0f17"/>
      <path id="Path_4335" data-name="Path 4335" d="M3.395,21.747a.215.215,0,1,1-.215.215.215.215,0,0,1,.215-.215" transform="translate(2021.883 -75.617)" fill="#0d0f17"/>
      <path id="Path_4336" data-name="Path 4336" d="M4.319,21.5a.192.192,0,1,1-.191.191.191.191,0,0,1,.191-.191" transform="translate(2021.883 -75.617)" fill="#0d0f17"/>
      <path id="Path_4337" data-name="Path 4337" d="M4.022,22.469a.211.211,0,1,1-.211.211.21.21,0,0,1,.211-.211" transform="translate(2021.883 -75.617)" fill="#0d0f17"/>
      <path id="Path_4338" data-name="Path 4338" d="M3.147,22.711a.229.229,0,1,1-.229.229.229.229,0,0,1,.229-.229" transform="translate(2021.883 -75.617)" fill="#0d0f17"/>
      <path id="Path_4339" data-name="Path 4339" d="M3.632,23.444a.228.228,0,1,1-.228.228.228.228,0,0,1,.228-.228" transform="translate(2021.883 -75.617)" fill="#0d0f17"/>
      <path id="Path_4340" data-name="Path 4340" d="M4.185,24.15a.228.228,0,1,1-.228.228.228.228,0,0,1,.228-.228" transform="translate(2021.883 -75.617)" fill="#0d0f17"/>
      <path id="Path_4341" data-name="Path 4341" d="M4.7,24.868a.23.23,0,1,1-.23.23.23.23,0,0,1,.23-.23" transform="translate(2021.883 -75.617)" fill="#0d0f17"/>
      <path id="Path_4342" data-name="Path 4342" d="M5.612,24.642a.214.214,0,1,1-.213.214.213.213,0,0,1,.213-.214" transform="translate(2021.883 -75.617)" fill="#0d0f17"/>
      <path id="Path_4343" data-name="Path 4343" d="M6.091,25.362a.217.217,0,1,1-.217.217.217.217,0,0,1,.217-.217" transform="translate(2021.883 -75.617)" fill="#0d0f17"/>
      <path id="Path_4344" data-name="Path 4344" d="M6.912,25.549a.207.207,0,1,1-.207.207.207.207,0,0,1,.207-.207" transform="translate(2021.883 -75.617)" fill="#0d0f17"/>
      <path id="Path_4345" data-name="Path 4345" d="M6.618,24.622a.194.194,0,1,1-.194.194.194.194,0,0,1,.194-.194" transform="translate(2021.883 -75.617)" fill="#0d0f17"/>
      <path id="Path_4346" data-name="Path 4346" d="M6.135,23.81A.187.187,0,1,1,5.948,24a.187.187,0,0,1,.187-.187" transform="translate(2021.883 -75.617)" fill="#0d0f17"/>
      <path id="Path_4347" data-name="Path 4347" d="M5.108,23.918a.212.212,0,1,1-.212.212.212.212,0,0,1,.212-.212" transform="translate(2021.883 -75.617)" fill="#0d0f17"/>
      <path id="Path_4348" data-name="Path 4348" d="M4.569,23.2a.211.211,0,1,1-.211.211.21.21,0,0,1,.211-.211" transform="translate(2021.883 -75.617)" fill="#0d0f17"/>
      <path id="Path_4349" data-name="Path 4349" d="M5.582,23.01a.185.185,0,1,1-.185.185.185.185,0,0,1,.185-.185" transform="translate(2021.883 -75.617)" fill="#0d0f17"/>
      <path id="Path_4350" data-name="Path 4350" d="M4.983,22.253a.185.185,0,1,1-.185.185.185.185,0,0,1,.185-.185" transform="translate(2021.883 -75.617)" fill="#0d0f17"/>
      <path id="Path_4351" data-name="Path 4351" d="M6.058,22.057a.149.149,0,1,1-.149.149.149.149,0,0,1,.149-.149" transform="translate(2021.883 -75.617)" fill="#0d0f17"/>
      <path id="Path_4352" data-name="Path 4352" d="M5.329,21.267a.157.157,0,1,1-.157.157.157.157,0,0,1,.157-.157" transform="translate(2021.883 -75.617)" fill="#0d0f17"/>
      <path id="Path_4353" data-name="Path 4353" d="M5.61,20.233a.13.13,0,1,1-.13.13.13.13,0,0,1,.13-.13" transform="translate(2021.883 -75.617)" fill="#0d0f17"/>
      <path id="Path_4354" data-name="Path 4354" d="M6.478,20.989a.117.117,0,1,1-.117.117.117.117,0,0,1,.117-.117" transform="translate(2021.883 -75.617)" fill="#0d0f17"/>
      <path id="Path_4355" data-name="Path 4355" d="M7.759,20.826a.079.079,0,1,1-.079.079.079.079,0,0,1,.079-.079" transform="translate(2021.883 -75.617)" fill="#0d0f17"/>
      <path id="Path_4356" data-name="Path 4356" d="M6.842,19.631a.085.085,0,0,1,.085.085.085.085,0,1,1-.17,0,.085.085,0,0,1,.085-.085" transform="translate(2021.883 -75.617)" fill="#0d0f17"/>
      <path id="Path_4357" data-name="Path 4357" d="M6.226,18.089a.088.088,0,1,1-.088.088.088.088,0,0,1,.088-.088" transform="translate(2021.883 -75.617)" fill="#0d0f17"/>
      <path id="Path_4358" data-name="Path 4358" d="M6.076,16.69a.082.082,0,1,1-.082.082.082.082,0,0,1,.082-.082" transform="translate(2021.883 -75.617)" fill="#0d0f17"/>
      <path id="Path_4359" data-name="Path 4359" d="M4.966,17.269a.12.12,0,1,1-.12.12.12.12,0,0,1,.12-.12" transform="translate(2021.883 -75.617)" fill="#0d0f17"/>
      <path id="Path_4360" data-name="Path 4360" d="M4.856,18.361a.133.133,0,1,1-.133.133.134.134,0,0,1,.133-.133" transform="translate(2021.883 -75.617)" fill="#0d0f17"/>
      <path id="Path_4361" data-name="Path 4361" d="M3.9,17.735a.161.161,0,1,1-.161.161.161.161,0,0,1,.161-.161" transform="translate(2021.883 -75.617)" fill="#0d0f17"/>
      <path id="Path_4362" data-name="Path 4362" d="M3.918,16.656a.155.155,0,1,1-.155.155.154.154,0,0,1,.155-.155" transform="translate(2021.883 -75.617)" fill="#0d0f17"/>
      <path id="Path_4363" data-name="Path 4363" d="M2.972,17.127a.188.188,0,1,1-.188.188.188.188,0,0,1,.188-.188" transform="translate(2021.883 -75.617)" fill="#0d0f17"/>
      <path id="Path_4364" data-name="Path 4364" d="M2.939,16.1a.187.187,0,1,1-.187.187.187.187,0,0,1,.187-.187" transform="translate(2021.883 -75.617)" fill="#0d0f17"/>
      <path id="Path_4365" data-name="Path 4365" d="M2.057,16.548a.213.213,0,1,1-.213.213.213.213,0,0,1,.213-.213" transform="translate(2021.883 -75.617)" fill="#0d0f17"/>
      <path id="Path_4366" data-name="Path 4366" d="M2.113,17.539a.214.214,0,1,1-.213.213.213.213,0,0,1,.213-.213" transform="translate(2021.883 -75.617)" fill="#0d0f17"/>
      <path id="Path_4367" data-name="Path 4367" d="M2.982,18.155a.194.194,0,1,1-.194.194.194.194,0,0,1,.194-.194" transform="translate(2021.883 -75.617)" fill="#0d0f17"/>
      <path id="Path_4368" data-name="Path 4368" d="M3.833,18.786a.173.173,0,1,1-.173.173.173.173,0,0,1,.173-.173" transform="translate(2021.883 -75.617)" fill="#0d0f17"/>
      <path id="Path_4369" data-name="Path 4369" d="M4.663,19.489a.15.15,0,1,1-.15.15.15.15,0,0,1,.15-.15" transform="translate(2021.883 -75.617)" fill="#0d0f17"/>
      <path id="Path_4370" data-name="Path 4370" d="M5.688,19.138a.113.113,0,1,1-.112.113.112.112,0,0,1,.112-.113" transform="translate(2021.883 -75.617)" fill="#0d0f17"/>
      <path id="Path_4371" data-name="Path 4371" d="M4.534,20.518a.17.17,0,1,1-.17.17.17.17,0,0,1,.17-.17" transform="translate(2021.883 -75.617)" fill="#0d0f17"/>
      <path id="Path_4372" data-name="Path 4372" d="M3.566,20.805a.2.2,0,1,1-.2.2.2.2,0,0,1,.2-.2" transform="translate(2021.883 -75.617)" fill="#0d0f17"/>
      <path id="Path_4373" data-name="Path 4373" d="M3.71,19.82a.187.187,0,1,1-.187.187.187.187,0,0,1,.187-.187" transform="translate(2021.883 -75.617)" fill="#0d0f17"/>
      <path id="Path_4374" data-name="Path 4374" d="M2.909,19.171a.2.2,0,1,1-.2.2.2.2,0,0,1,.2-.2" transform="translate(2021.883 -75.617)" fill="#0d0f17"/>
      <path id="Path_4375" data-name="Path 4375" d="M2.137,18.531a.218.218,0,1,1-.218.218.218.218,0,0,1,.218-.218" transform="translate(2021.883 -75.617)" fill="#0d0f17"/>
      <path id="Path_4376" data-name="Path 4376" d="M1.3,17.908a.23.23,0,1,1-.23.23.23.23,0,0,1,.23-.23" transform="translate(2021.883 -75.617)" fill="#0d0f17"/>
      <path id="Path_4377" data-name="Path 4377" d="M1.352,18.883a.233.233,0,1,1-.232.232.232.232,0,0,1,.232-.232" transform="translate(2021.883 -75.617)" fill="#0d0f17"/>
      <path id="Path_4378" data-name="Path 4378" d="M2.022,19.536a.225.225,0,1,1-.225.225.225.225,0,0,1,.225-.225" transform="translate(2021.883 -75.617)" fill="#0d0f17"/>
      <path id="Path_4379" data-name="Path 4379" d="M2.8,20.149a.215.215,0,1,1-.214.214.214.214,0,0,1,.214-.214" transform="translate(2021.883 -75.617)" fill="#0d0f17"/>
      <path id="Path_4380" data-name="Path 4380" d="M1.916,20.479a.232.232,0,1,1-.232.232.232.232,0,0,1,.232-.232" transform="translate(2021.883 -75.617)" fill="#0d0f17"/>
      <path id="Path_4381" data-name="Path 4381" d="M1.7,21.432a.238.238,0,1,1-.237.237.237.237,0,0,1,.237-.237" transform="translate(2021.883 -75.617)" fill="#0d0f17"/>
      <path id="Path_4382" data-name="Path 4382" d="M1.066,20.81a.233.233,0,1,1-.233.233.233.233,0,0,1,.233-.233" transform="translate(2021.883 -75.617)" fill="#0d0f17"/>
      <path id="Path_4383" data-name="Path 4383" d="M1.128,19.91a.238.238,0,1,1-.237.237.237.237,0,0,1,.237-.237" transform="translate(2021.883 -75.617)" fill="#0d0f17"/>
      <path id="Path_4384" data-name="Path 4384" d="M.63,19.23a.237.237,0,1,1-.236.237A.237.237,0,0,1,.63,19.23" transform="translate(2021.883 -75.617)" fill="#0d0f17"/>
      <path id="Path_4385" data-name="Path 4385" d="M.54,18.312a.239.239,0,1,1-.239.239.239.239,0,0,1,.239-.239" transform="translate(2021.883 -75.617)" fill="#0d0f17"/>
      <path id="Path_4386" data-name="Path 4386" d="M.389,17.4a.238.238,0,1,1-.239.238A.238.238,0,0,1,.389,17.4" transform="translate(2021.883 -75.617)" fill="#0d0f17"/>
      <path id="Path_4387" data-name="Path 4387" d="M1.208,16.958a.229.229,0,1,1-.229.229.229.229,0,0,1,.229-.229" transform="translate(2021.883 -75.617)" fill="#0d0f17"/>
      <path id="Path_4388" data-name="Path 4388" d="M1.133,16a.229.229,0,1,1-.229.229A.229.229,0,0,1,1.133,16" transform="translate(2021.883 -75.617)" fill="#0d0f17"/>
      <path id="Path_4389" data-name="Path 4389" d="M.286,16.463a.239.239,0,1,1-.239.239.239.239,0,0,1,.239-.239" transform="translate(2021.883 -75.617)" fill="#0d0f17"/>
      <path id="Path_4390" data-name="Path 4390" d="M.266,15.489a.238.238,0,1,1-.238.238.237.237,0,0,1,.238-.238" transform="translate(2021.883 -75.617)" fill="#0d0f17"/>
      <path id="Path_4391" data-name="Path 4391" d="M1.059,15.023a.23.23,0,1,1-.23.23.23.23,0,0,1,.23-.23" transform="translate(2021.883 -75.617)" fill="#0d0f17"/>
      <path id="Path_4392" data-name="Path 4392" d="M.239,14.445A.239.239,0,1,1,0,14.684a.239.239,0,0,1,.239-.239" transform="translate(2021.883 -75.617)" fill="#0d0f17"/>
      <path id="Path_4393" data-name="Path 4393" d="M.32,13.347a.239.239,0,1,1-.239.239.239.239,0,0,1,.239-.239" transform="translate(2021.883 -75.617)" fill="#0d0f17"/>
      <path id="Path_4394" data-name="Path 4394" d="M1.155,12.932a.232.232,0,1,1-.232.232.232.232,0,0,1,.232-.232" transform="translate(2021.883 -75.617)" fill="#0d0f17"/>
      <path id="Path_4395" data-name="Path 4395" d="M1.03,14a.232.232,0,1,1-.232.232A.232.232,0,0,1,1.03,14" transform="translate(2021.883 -75.617)" fill="#0d0f17"/>
      <path id="Path_4396" data-name="Path 4396" d="M1.889,14.6a.215.215,0,1,1-.215.215.215.215,0,0,1,.215-.215" transform="translate(2021.883 -75.617)" fill="#0d0f17"/>
      <path id="Path_4397" data-name="Path 4397" d="M1.98,15.572a.214.214,0,1,1-.213.214.213.213,0,0,1,.213-.214" transform="translate(2021.883 -75.617)" fill="#0d0f17"/>
      <path id="Path_4398" data-name="Path 4398" d="M2.852,15.1a.19.19,0,1,1-.19.19.19.19,0,0,1,.19-.19" transform="translate(2021.883 -75.617)" fill="#0d0f17"/>
      <path id="Path_4399" data-name="Path 4399" d="M3.85,15.537a.153.153,0,1,1-.153.153.153.153,0,0,1,.153-.153" transform="translate(2021.883 -75.617)" fill="#0d0f17"/>
      <path id="Path_4400" data-name="Path 4400" d="M3.743,14.447a.16.16,0,1,1-.16.16.16.16,0,0,1,.16-.16" transform="translate(2021.883 -75.617)" fill="#0d0f17"/>
      <path id="Path_4401" data-name="Path 4401" d="M2.753,14.144a.194.194,0,1,1-.194.194.194.194,0,0,1,.194-.194" transform="translate(2021.883 -75.617)" fill="#0d0f17"/>
      <path id="Path_4402" data-name="Path 4402" d="M1.841,13.619a.219.219,0,1,1-.219.219.219.219,0,0,1,.219-.219" transform="translate(2021.883 -75.617)" fill="#0d0f17"/>
      <path id="Path_4403" data-name="Path 4403" d="M2.626,13.219a.2.2,0,1,1-.2.2.2.2,0,0,1,.2-.2" transform="translate(2021.883 -75.617)" fill="#0d0f17"/>
      <path id="Path_4404" data-name="Path 4404" d="M2.007,12.558a.218.218,0,1,1-.218.217.218.218,0,0,1,.218-.217" transform="translate(2021.883 -75.617)" fill="#0d0f17"/>
      <path id="Path_4405" data-name="Path 4405" d="M1.4,11.874a.232.232,0,1,1-.232.232.232.232,0,0,1,.232-.232" transform="translate(2021.883 -75.617)" fill="#0d0f17"/>
      <path id="Path_4406" data-name="Path 4406" d="M.514,12.249a.239.239,0,1,1-.239.239.239.239,0,0,1,.239-.239" transform="translate(2021.883 -75.617)" fill="#0d0f17"/>
      <path id="Path_4407" data-name="Path 4407" d="M.785,11.2a.239.239,0,1,1-.239.239A.239.239,0,0,1,.785,11.2" transform="translate(2021.883 -75.617)" fill="#0d0f17"/>
      <path id="Path_4408" data-name="Path 4408" d="M1.083,10.2a.239.239,0,1,1-.239.239.239.239,0,0,1,.239-.239" transform="translate(2021.883 -75.617)" fill="#0d0f17"/>
      <path id="Path_4409" data-name="Path 4409" d="M1.743,10.9a.231.231,0,1,1-.231.231.231.231,0,0,1,.231-.231" transform="translate(2021.883 -75.617)" fill="#0d0f17"/>
      <path id="Path_4410" data-name="Path 4410" d="M2.376,11.646a.216.216,0,1,1-.216.216.216.216,0,0,1,.216-.216" transform="translate(2021.883 -75.617)" fill="#0d0f17"/>
      <path id="Path_4411" data-name="Path 4411" d="M2.754,10.749a.214.214,0,1,1-.214.213.213.213,0,0,1,.214-.213" transform="translate(2021.883 -75.617)" fill="#0d0f17"/>
      <path id="Path_4412" data-name="Path 4412" d="M3.113,9.838a.215.215,0,1,1-.214.214.214.214,0,0,1,.214-.214" transform="translate(2021.883 -75.617)" fill="#0d0f17"/>
      <path id="Path_4413" data-name="Path 4413" d="M3.812,10.616a.189.189,0,1,1-.189.189.189.189,0,0,1,.189-.189" transform="translate(2021.883 -75.617)" fill="#0d0f17"/>
      <path id="Path_4414" data-name="Path 4414" d="M3.435,11.534a.191.191,0,1,1-.191.191.191.191,0,0,1,.191-.191" transform="translate(2021.883 -75.617)" fill="#0d0f17"/>
      <path id="Path_4415" data-name="Path 4415" d="M3.041,12.4a.193.193,0,1,1-.193.193.192.192,0,0,1,.193-.193" transform="translate(2021.883 -75.617)" fill="#0d0f17"/>
      <path id="Path_4416" data-name="Path 4416" d="M4.082,12.5a.157.157,0,1,1-.157.157.157.157,0,0,1,.157-.157" transform="translate(2021.883 -75.617)" fill="#0d0f17"/>
      <path id="Path_4417" data-name="Path 4417" d="M4.521,11.534a.154.154,0,1,1-.153.153.153.153,0,0,1,.153-.153" transform="translate(2021.883 -75.617)" fill="#0d0f17"/>
      <path id="Path_4418" data-name="Path 4418" d="M4.906,10.532a.155.155,0,1,1-.154.154.154.154,0,0,1,.154-.154" transform="translate(2021.883 -75.617)" fill="#0d0f17"/>
      <path id="Path_4419" data-name="Path 4419" d="M5.69,11.453a.118.118,0,1,1-.117.117.117.117,0,0,1,.117-.117" transform="translate(2021.883 -75.617)" fill="#0d0f17"/>
      <path id="Path_4420" data-name="Path 4420" d="M5.222,12.59a.119.119,0,1,1-.119.119.119.119,0,0,1,.119-.119" transform="translate(2021.883 -75.617)" fill="#0d0f17"/>
      <path id="Path_4421" data-name="Path 4421" d="M4.605,13.619a.133.133,0,1,1-.133.133.134.134,0,0,1,.133-.133" transform="translate(2021.883 -75.617)" fill="#0d0f17"/>
      <path id="Path_4422" data-name="Path 4422" d="M3.552,13.4a.171.171,0,1,1-.171.171.171.171,0,0,1,.171-.171" transform="translate(2021.883 -75.617)" fill="#0d0f17"/>
      <path id="Path_4423" data-name="Path 4423" d="M4.806,14.794a.121.121,0,1,1-.121.121.121.121,0,0,1,.121-.121" transform="translate(2021.883 -75.617)" fill="#0d0f17"/>
      <path id="Path_4424" data-name="Path 4424" d="M4.89,16.038a.118.118,0,1,1-.117.117.117.117,0,0,1,.117-.117" transform="translate(2021.883 -75.617)" fill="#0d0f17"/>
      <path id="Path_4425" data-name="Path 4425" d="M5.988,15.243a.085.085,0,1,1-.084.084.084.084,0,0,1,.084-.084" transform="translate(2021.883 -75.617)" fill="#0d0f17"/>
      <path id="Path_4426" data-name="Path 4426" d="M5.863,13.851a.091.091,0,1,1-.091.091.091.091,0,0,1,.091-.091" transform="translate(2021.883 -75.617)" fill="#0d0f17"/>
      <path id="Path_4427" data-name="Path 4427" d="M6.544,12.587a.082.082,0,1,1-.082.082.082.082,0,0,1,.082-.082" transform="translate(2021.883 -75.617)" fill="#0d0f17"/>
      <path id="Path_4428" data-name="Path 4428" d="M7,11.143a.085.085,0,1,1-.084.084A.084.084,0,0,1,7,11.143" transform="translate(2021.883 -75.617)" fill="#0d0f17"/>
      <path id="Path_4429" data-name="Path 4429" d="M7.608,9.856a.088.088,0,1,1-.088.088.088.088,0,0,1,.088-.088" transform="translate(2021.883 -75.617)" fill="#0d0f17"/>
      <path id="Path_4430" data-name="Path 4430" d="M6.475,9.21a.13.13,0,1,1-.13.13.13.13,0,0,1,.13-.13" transform="translate(2021.883 -75.617)" fill="#0d0f17"/>
      <path id="Path_4431" data-name="Path 4431" d="M6.086,10.272a.122.122,0,1,1-.122.121.122.122,0,0,1,.122-.121" transform="translate(2021.883 -75.617)" fill="#0d0f17"/>
      <path id="Path_4432" data-name="Path 4432" d="M5.2,9.512a.161.161,0,1,1-.161.161A.161.161,0,0,1,5.2,9.512" transform="translate(2021.883 -75.617)" fill="#0d0f17"/>
      <path id="Path_4433" data-name="Path 4433" d="M4.2,9.669a.19.19,0,1,1-.19.19.19.19,0,0,1,.19-.19" transform="translate(2021.883 -75.617)" fill="#0d0f17"/>
      <path id="Path_4434" data-name="Path 4434" d="M3.547,9a.213.213,0,1,1-.213.213A.213.213,0,0,1,3.547,9" transform="translate(2021.883 -75.617)" fill="#0d0f17"/>
      <path id="Path_4435" data-name="Path 4435" d="M2.548,8.963a.231.231,0,1,1-.231.231.231.231,0,0,1,.231-.231" transform="translate(2021.883 -75.617)" fill="#0d0f17"/>
      <path id="Path_4436" data-name="Path 4436" d="M2.139,9.965a.23.23,0,1,1-.23.23.23.23,0,0,1,.23-.23" transform="translate(2021.883 -75.617)" fill="#0d0f17"/>
      <path id="Path_4437" data-name="Path 4437" d="M1.507,9.335a.238.238,0,1,1-.238.238.238.238,0,0,1,.238-.238" transform="translate(2021.883 -75.617)" fill="#0d0f17"/>
      <path id="Path_4438" data-name="Path 4438" d="M1.767,8.463a.239.239,0,1,1-.239.239.239.239,0,0,1,.239-.239" transform="translate(2021.883 -75.617)" fill="#0d0f17"/>
      <path id="Path_4439" data-name="Path 4439" d="M2.415,7.861a.238.238,0,1,1-.237.237.237.237,0,0,1,.237-.237" transform="translate(2021.883 -75.617)" fill="#0d0f17"/>
      <path id="Path_4440" data-name="Path 4440" d="M2.5,6.97a.22.22,0,1,1-.22.22.22.22,0,0,1,.22-.22" transform="translate(2021.883 -75.617)" fill="#0d0f17"/>
      <path id="Path_4441" data-name="Path 4441" d="M3.349,7.249a.233.233,0,1,1-.233.233.232.232,0,0,1,.233-.233" transform="translate(2021.883 -75.617)" fill="#0d0f17"/>
      <path id="Path_4442" data-name="Path 4442" d="M3.356,8.169A.226.226,0,1,1,3.13,8.4a.226.226,0,0,1,.226-.226" transform="translate(2021.883 -75.617)" fill="#0d0f17"/>
      <path id="Path_4443" data-name="Path 4443" d="M4.242,7.593a.216.216,0,1,1-.216.216.216.216,0,0,1,.216-.216" transform="translate(2021.883 -75.617)" fill="#0d0f17"/>
      <path id="Path_4444" data-name="Path 4444" d="M4.466,8.583a.2.2,0,1,1-.2.2.2.2,0,0,1,.2-.2" transform="translate(2021.883 -75.617)" fill="#0d0f17"/>
      <path id="Path_4445" data-name="Path 4445" d="M5.526,8.629a.167.167,0,1,1-.167.167.167.167,0,0,1,.167-.167" transform="translate(2021.883 -75.617)" fill="#0d0f17"/>
      <path id="Path_4446" data-name="Path 4446" d="M6.343,8.036a.157.157,0,1,1-.157.157.157.157,0,0,1,.157-.157" transform="translate(2021.883 -75.617)" fill="#0d0f17"/>
      <path id="Path_4447" data-name="Path 4447" d="M7.142,7.341a.153.153,0,1,1-.153.153.153.153,0,0,1,.153-.153" transform="translate(2021.883 -75.617)" fill="#0d0f17"/>
      <path id="Path_4448" data-name="Path 4448" d="M7.47,8.48a.118.118,0,1,1-.118.118A.118.118,0,0,1,7.47,8.48" transform="translate(2021.883 -75.617)" fill="#0d0f17"/>
      <path id="Path_4449" data-name="Path 4449" d="M8.788,8.8a.082.082,0,1,1-.082.082A.082.082,0,0,1,8.788,8.8" transform="translate(2021.883 -75.617)" fill="#0d0f17"/>
      <path id="Path_4450" data-name="Path 4450" d="M10.016,7.686a.083.083,0,1,1-.083.083.083.083,0,0,1,.083-.083" transform="translate(2021.883 -75.617)" fill="#0d0f17"/>
      <path id="Path_4451" data-name="Path 4451" d="M9.155,6.67a.126.126,0,1,1-.126.126.126.126,0,0,1,.126-.126" transform="translate(2021.883 -75.617)" fill="#0d0f17"/>
      <path id="Path_4452" data-name="Path 4452" d="M8.4,7.574a.117.117,0,1,1-.117.116A.116.116,0,0,1,8.4,7.574" transform="translate(2021.883 -75.617)" fill="#0d0f17"/>
      <path id="Path_4453" data-name="Path 4453" d="M7.816,6.549a.158.158,0,1,1-.158.158.158.158,0,0,1,.158-.158" transform="translate(2021.883 -75.617)" fill="#0d0f17"/>
      <path id="Path_4454" data-name="Path 4454" d="M8.451,5.834A.164.164,0,1,1,8.288,6a.163.163,0,0,1,.163-.163" transform="translate(2021.883 -75.617)" fill="#0d0f17"/>
      <path id="Path_4455" data-name="Path 4455" d="M8.425,4.848a.191.191,0,1,1-.191.191.19.19,0,0,1,.191-.191" transform="translate(2021.883 -75.617)" fill="#0d0f17"/>
      <path id="Path_4456" data-name="Path 4456" d="M9.315,4.311a.189.189,0,1,1-.189.189.189.189,0,0,1,.189-.189" transform="translate(2021.883 -75.617)" fill="#0d0f17"/>
      <path id="Path_4457" data-name="Path 4457" d="M9.4,5.424a.155.155,0,1,1-.155.155A.154.154,0,0,1,9.4,5.424" transform="translate(2021.883 -75.617)" fill="#0d0f17"/>
      <path id="Path_4458" data-name="Path 4458" d="M10.269,6.187a.119.119,0,1,1-.119.119.119.119,0,0,1,.119-.119" transform="translate(2021.883 -75.617)" fill="#0d0f17"/>
      <path id="Path_4459" data-name="Path 4459" d="M11.423,6.812a.085.085,0,1,1-.084.084.084.084,0,0,1,.084-.084" transform="translate(2021.883 -75.617)" fill="#0d0f17"/>
      <path id="Path_4460" data-name="Path 4460" d="M10.256,4.792a.16.16,0,1,1-.16.16.16.16,0,0,1,.16-.16" transform="translate(2021.883 -75.617)" fill="#0d0f17"/>
      <path id="Path_4461" data-name="Path 4461" d="M11.147,5.327a.13.13,0,1,1-.13.13.13.13,0,0,1,.13-.13" transform="translate(2021.883 -75.617)" fill="#0d0f17"/>
      <path id="Path_4462" data-name="Path 4462" d="M12.194,5.687a.107.107,0,1,1-.107.107.107.107,0,0,1,.107-.107" transform="translate(2021.883 -75.617)" fill="#0d0f17"/>
      <path id="Path_4463" data-name="Path 4463" d="M13.236,6.449a.077.077,0,1,1-.077.077.077.077,0,0,1,.077-.077" transform="translate(2021.883 -75.617)" fill="#0d0f17"/>
      <path id="Path_4464" data-name="Path 4464" d="M14.3,5.555a.1.1,0,1,1-.1.1.1.1,0,0,1,.1-.1" transform="translate(2021.883 -75.617)" fill="#0d0f17"/>
      <path id="Path_4465" data-name="Path 4465" d="M15.641,5.909a.085.085,0,1,1-.084.084.084.084,0,0,1,.084-.084" transform="translate(2021.883 -75.617)" fill="#0d0f17"/>
      <path id="Path_4466" data-name="Path 4466" d="M16.325,4.8a.118.118,0,1,1-.118.118.118.118,0,0,1,.118-.118" transform="translate(2021.883 -75.617)" fill="#0d0f17"/>
      <path id="Path_4467" data-name="Path 4467" d="M16.788,3.738a.155.155,0,1,1-.155.155.155.155,0,0,1,.155-.155" transform="translate(2021.883 -75.617)" fill="#0d0f17"/>
      <path id="Path_4468" data-name="Path 4468" d="M15.743,3.644a.155.155,0,1,1-.155.155.154.154,0,0,1,.155-.155" transform="translate(2021.883 -75.617)" fill="#0d0f17"/>
      <path id="Path_4469" data-name="Path 4469" d="M15.1,4.572a.126.126,0,1,1-.126.126.126.126,0,0,1,.126-.126" transform="translate(2021.883 -75.617)" fill="#0d0f17"/>
      <path id="Path_4470" data-name="Path 4470" d="M13.964,4.186a.141.141,0,1,1-.14.14.14.14,0,0,1,.14-.14" transform="translate(2021.883 -75.617)" fill="#0d0f17"/>
      <path id="Path_4471" data-name="Path 4471" d="M13.145,4.94a.122.122,0,1,1-.121.122.122.122,0,0,1,.121-.122" transform="translate(2021.883 -75.617)" fill="#0d0f17"/>
      <path id="Path_4472" data-name="Path 4472" d="M12.91,3.7a.164.164,0,1,1-.164.164A.164.164,0,0,1,12.91,3.7" transform="translate(2021.883 -75.617)" fill="#0d0f17"/>
      <path id="Path_4473" data-name="Path 4473" d="M14.679,3.383a.166.166,0,1,1-.166.166.166.166,0,0,1,.166-.166" transform="translate(2021.883 -75.617)" fill="#0d0f17"/>
      <path id="Path_4474" data-name="Path 4474" d="M15.346,2.589a.192.192,0,1,1-.192.192.192.192,0,0,1,.192-.192" transform="translate(2021.883 -75.617)" fill="#0d0f17"/>
      <path id="Path_4475" data-name="Path 4475" d="M16.311,2.689a.191.191,0,1,1-.19.191.19.19,0,0,1,.19-.191" transform="translate(2021.883 -75.617)" fill="#0d0f17"/>
      <path id="Path_4476" data-name="Path 4476" d="M17.271,2.733a.191.191,0,1,1-.19.191.191.191,0,0,1,.19-.191" transform="translate(2021.883 -75.617)" fill="#0d0f17"/>
      <path id="Path_4477" data-name="Path 4477" d="M18.254,2.717a.2.2,0,1,1-.195.195.195.195,0,0,1,.195-.195" transform="translate(2021.883 -75.617)" fill="#0d0f17"/>
      <path id="Path_4478" data-name="Path 4478" d="M18.769,1.959a.216.216,0,1,1-.216.216.216.216,0,0,1,.216-.216" transform="translate(2021.883 -75.617)" fill="#0d0f17"/>
      <path id="Path_4479" data-name="Path 4479" d="M19.283,1.267a.231.231,0,1,1-.231.231.231.231,0,0,1,.231-.231" transform="translate(2021.883 -75.617)" fill="#0d0f17"/>
      <path id="Path_4480" data-name="Path 4480" d="M19.786.6a.238.238,0,1,1-.238.238A.239.239,0,0,1,19.786.6" transform="translate(2021.883 -75.617)" fill="#0d0f17"/>
      <path id="Path_4481" data-name="Path 4481" d="M18.847.377a.239.239,0,1,1-.239.239.239.239,0,0,1,.239-.239" transform="translate(2021.883 -75.617)" fill="#0d0f17"/>
      <path id="Path_4482" data-name="Path 4482" d="M18.3,1.077a.23.23,0,1,1-.23.23.23.23,0,0,1,.23-.23" transform="translate(2021.883 -75.617)" fill="#0d0f17"/>
      <path id="Path_4483" data-name="Path 4483" d="M17.771,1.841a.215.215,0,1,1-.215.215.215.215,0,0,1,.215-.215" transform="translate(2021.883 -75.617)" fill="#0d0f17"/>
      <path id="Path_4484" data-name="Path 4484" d="M16.822,1.779a.215.215,0,1,1-.214.214.214.214,0,0,1,.214-.214" transform="translate(2021.883 -75.617)" fill="#0d0f17"/>
      <path id="Path_4485" data-name="Path 4485" d="M15.9,1.7a.215.215,0,1,1-.215.215A.215.215,0,0,1,15.9,1.7" transform="translate(2021.883 -75.617)" fill="#0d0f17"/>
      <path id="Path_4486" data-name="Path 4486" d="M17.319.946a.23.23,0,1,1-.23.23.23.23,0,0,1,.23-.23" transform="translate(2021.883 -75.617)" fill="#0d0f17"/>
      <path id="Path_4487" data-name="Path 4487" d="M17.873.2a.238.238,0,1,1-.238.238A.238.238,0,0,1,17.873.2" transform="translate(2021.883 -75.617)" fill="#0d0f17"/>
      <path id="Path_4488" data-name="Path 4488" d="M16.884.05a.239.239,0,1,1-.239.239A.239.239,0,0,1,16.884.05" transform="translate(2021.883 -75.617)" fill="#0d0f17"/>
      <path id="Path_4489" data-name="Path 4489" d="M16.364.846a.23.23,0,1,1-.23.23.23.23,0,0,1,.23-.23" transform="translate(2021.883 -75.617)" fill="#0d0f17"/>
      <path id="Path_4490" data-name="Path 4490" d="M15.857,0a.239.239,0,1,1-.239.239A.239.239,0,0,1,15.857,0" transform="translate(2021.883 -75.617)" fill="#0d0f17"/>
      <path id="Path_4491" data-name="Path 4491" d="M15.362.816a.231.231,0,1,1-.231.231.23.23,0,0,1,.231-.231" transform="translate(2021.883 -75.617)" fill="#0d0f17"/>
      <path id="Path_4492" data-name="Path 4492" d="M14.821.076a.238.238,0,1,1-.238.238.238.238,0,0,1,.238-.238" transform="translate(2021.883 -75.617)" fill="#0d0f17"/>
      <path id="Path_4493" data-name="Path 4493" d="M13.863.136a.238.238,0,1,1-.238.238.239.239,0,0,1,.238-.238" transform="translate(2021.883 -75.617)" fill="#0d0f17"/>
      <path id="Path_4494" data-name="Path 4494" d="M14.338,1.042a.229.229,0,1,1-.228.228.228.228,0,0,1,.228-.228" transform="translate(2021.883 -75.617)" fill="#0d0f17"/>
      <path id="Path_4495" data-name="Path 4495" d="M14.982,1.657a.215.215,0,1,1-.215.215.215.215,0,0,1,.215-.215" transform="translate(2021.883 -75.617)" fill="#0d0f17"/>
      <path id="Path_4496" data-name="Path 4496" d="M14.361,2.3a.2.2,0,1,1-.2.2.2.2,0,0,1,.2-.2" transform="translate(2021.883 -75.617)" fill="#0d0f17"/>
      <path id="Path_4497" data-name="Path 4497" d="M13.548,1.883a.213.213,0,1,1-.213.213.213.213,0,0,1,.213-.213" transform="translate(2021.883 -75.617)" fill="#0d0f17"/>
      <path id="Path_4498" data-name="Path 4498" d="M13.665,3.01a.184.184,0,1,1-.184.184.184.184,0,0,1,.184-.184" transform="translate(2021.883 -75.617)" fill="#0d0f17"/>
      <path id="Path_4499" data-name="Path 4499" d="M12.749,2.518a.2.2,0,1,1-.2.2.2.2,0,0,1,.2-.2" transform="translate(2021.883 -75.617)" fill="#0d0f17"/>
      <path id="Path_4500" data-name="Path 4500" d="M11.83,2.273a.214.214,0,1,1-.214.213.213.213,0,0,1,.214-.213" transform="translate(2021.883 -75.617)" fill="#0d0f17"/>
      <path id="Path_4501" data-name="Path 4501" d="M10.9,1.846a.228.228,0,1,1-.227.227.228.228,0,0,1,.227-.227" transform="translate(2021.883 -75.617)" fill="#0d0f17"/>
      <path id="Path_4502" data-name="Path 4502" d="M11.706,1.346a.231.231,0,1,1-.231.231.231.231,0,0,1,.231-.231" transform="translate(2021.883 -75.617)" fill="#0d0f17"/>
      <path id="Path_4503" data-name="Path 4503" d="M12.6,1.407a.226.226,0,1,1-.226.226.226.226,0,0,1,.226-.226" transform="translate(2021.883 -75.617)" fill="#0d0f17"/>
      <path id="Path_4504" data-name="Path 4504" d="M13.431.967A.231.231,0,1,1,13.2,1.2a.23.23,0,0,1,.231-.231" transform="translate(2021.883 -75.617)" fill="#0d0f17"/>
      <path id="Path_4505" data-name="Path 4505" d="M12.871.276a.238.238,0,1,1-.238.238.238.238,0,0,1,.238-.238" transform="translate(2021.883 -75.617)" fill="#0d0f17"/>
      <path id="Path_4506" data-name="Path 4506" d="M11.987.459A.238.238,0,1,1,11.749.7a.237.237,0,0,1,.238-.238" transform="translate(2021.883 -75.617)" fill="#0d0f17"/>
      <path id="Path_4507" data-name="Path 4507" d="M11.045.72a.239.239,0,1,1-.239.239A.239.239,0,0,1,11.045.72" transform="translate(2021.883 -75.617)" fill="#0d0f17"/>
      <path id="Path_4508" data-name="Path 4508" d="M10.192,1a.239.239,0,1,1-.239.239A.239.239,0,0,1,10.192,1" transform="translate(2021.883 -75.617)" fill="#0d0f17"/>
      <path id="Path_4509" data-name="Path 4509" d="M9.988,1.847a.232.232,0,1,1-.232.231.232.232,0,0,1,.232-.231" transform="translate(2021.883 -75.617)" fill="#0d0f17"/>
      <path id="Path_4510" data-name="Path 4510" d="M10.118,2.709a.217.217,0,1,1-.217.217.217.217,0,0,1,.217-.217" transform="translate(2021.883 -75.617)" fill="#0d0f17"/>
      <path id="Path_4511" data-name="Path 4511" d="M11.023,2.929a.2.2,0,1,1-.2.2.2.2,0,0,1,.2-.2" transform="translate(2021.883 -75.617)" fill="#0d0f17"/>
      <path id="Path_4512" data-name="Path 4512" d="M11.958,3.312a.187.187,0,1,1-.185.186.186.186,0,0,1,.185-.186" transform="translate(2021.883 -75.617)" fill="#0d0f17"/>
      <path id="Path_4513" data-name="Path 4513" d="M12.063,4.467a.147.147,0,1,1-.147.147.147.147,0,0,1,.147-.147" transform="translate(2021.883 -75.617)" fill="#0d0f17"/>
      <path id="Path_4514" data-name="Path 4514" d="M11.113,4.043a.172.172,0,1,1-.172.171.171.171,0,0,1,.172-.171" transform="translate(2021.883 -75.617)" fill="#0d0f17"/>
      <path id="Path_4515" data-name="Path 4515" d="M10.181,3.691a.194.194,0,1,1-.194.194.194.194,0,0,1,.194-.194" transform="translate(2021.883 -75.617)" fill="#0d0f17"/>
      <path id="Path_4516" data-name="Path 4516" d="M9.268,3.261a.215.215,0,1,1-.214.214.214.214,0,0,1,.214-.214" transform="translate(2021.883 -75.617)" fill="#0d0f17"/>
      <path id="Path_4517" data-name="Path 4517" d="M8.359,2.787a.23.23,0,1,1-.23.23.23.23,0,0,1,.23-.23" transform="translate(2021.883 -75.617)" fill="#0d0f17"/>
      <path id="Path_4518" data-name="Path 4518" d="M7.553,3.294a.231.231,0,1,1-.231.231.23.23,0,0,1,.231-.231" transform="translate(2021.883 -75.617)" fill="#0d0f17"/>
      <path id="Path_4519" data-name="Path 4519" d="M8.447,3.781a.215.215,0,1,1-.214.214.214.214,0,0,1,.214-.214" transform="translate(2021.883 -75.617)" fill="#0d0f17"/>
      <path id="Path_4520" data-name="Path 4520" d="M7.637,4.3a.214.214,0,1,1-.214.214A.213.213,0,0,1,7.637,4.3" transform="translate(2021.883 -75.617)" fill="#0d0f17"/>
      <path id="Path_4521" data-name="Path 4521" d="M7.475,5.444a.193.193,0,1,1-.193.193.192.192,0,0,1,.193-.193" transform="translate(2021.883 -75.617)" fill="#0d0f17"/>
      <path id="Path_4522" data-name="Path 4522" d="M6.767,6.278a.189.189,0,1,1-.189.189.189.189,0,0,1,.189-.189" transform="translate(2021.883 -75.617)" fill="#0d0f17"/>
      <path id="Path_4523" data-name="Path 4523" d="M6.314,5.395a.212.212,0,1,1-.212.212.212.212,0,0,1,.212-.212" transform="translate(2021.883 -75.617)" fill="#0d0f17"/>
      <path id="Path_4524" data-name="Path 4524" d="M5.677,6.072a.212.212,0,1,1-.212.212.212.212,0,0,1,.212-.212" transform="translate(2021.883 -75.617)" fill="#0d0f17"/>
      <path id="Path_4525" data-name="Path 4525" d="M6.037,7.017a.188.188,0,1,1-.188.188.188.188,0,0,1,.188-.188" transform="translate(2021.883 -75.617)" fill="#0d0f17"/>
      <path id="Path_4526" data-name="Path 4526" d="M5.233,7.721a.195.195,0,1,1-.195.195.2.2,0,0,1,.195-.195" transform="translate(2021.883 -75.617)" fill="#0d0f17"/>
      <path id="Path_4527" data-name="Path 4527" d="M4.992,6.793a.214.214,0,1,1-.213.214.213.213,0,0,1,.213-.214" transform="translate(2021.883 -75.617)" fill="#0d0f17"/>
      <path id="Path_4528" data-name="Path 4528" d="M4.083,6.567a.229.229,0,1,1-.229.229.23.23,0,0,1,.229-.229" transform="translate(2021.883 -75.617)" fill="#0d0f17"/>
      <path id="Path_4529" data-name="Path 4529" d="M3.226,6.283a.239.239,0,1,1-.239.239.239.239,0,0,1,.239-.239" transform="translate(2021.883 -75.617)" fill="#0d0f17"/>
      <path id="Path_4530" data-name="Path 4530" d="M3.8,5.559a.239.239,0,1,1-.239.239A.239.239,0,0,1,3.8,5.559" transform="translate(2021.883 -75.617)" fill="#0d0f17"/>
      <path id="Path_4531" data-name="Path 4531" d="M4.717,5.811a.229.229,0,1,1-.229.229.229.229,0,0,1,.229-.229" transform="translate(2021.883 -75.617)" fill="#0d0f17"/>
      <path id="Path_4532" data-name="Path 4532" d="M5.351,5.088a.23.23,0,1,1-.23.23.231.231,0,0,1,.23-.23" transform="translate(2021.883 -75.617)" fill="#0d0f17"/>
      <path id="Path_4533" data-name="Path 4533" d="M4.431,4.839a.238.238,0,1,1-.237.238.238.238,0,0,1,.237-.238" transform="translate(2021.883 -75.617)" fill="#0d0f17"/>
      <path id="Path_4534" data-name="Path 4534" d="M5.086,4.094a.239.239,0,1,1-.239.239.239.239,0,0,1,.239-.239" transform="translate(2021.883 -75.617)" fill="#0d0f17"/>
      <path id="Path_4535" data-name="Path 4535" d="M5.86,3.429a.239.239,0,1,1-.239.239.239.239,0,0,1,.239-.239" transform="translate(2021.883 -75.617)" fill="#0d0f17"/>
      <path id="Path_4536" data-name="Path 4536" d="M5.974,4.4a.232.232,0,1,1-.232.232A.232.232,0,0,1,5.974,4.4" transform="translate(2021.883 -75.617)" fill="#0d0f17"/>
      <path id="Path_4537" data-name="Path 4537" d="M6.855,4.7a.217.217,0,1,1-.217.217A.217.217,0,0,1,6.855,4.7" transform="translate(2021.883 -75.617)" fill="#0d0f17"/>
      <path id="Path_4538" data-name="Path 4538" d="M6.744,3.771A.232.232,0,1,1,6.512,4a.232.232,0,0,1,.232-.231" transform="translate(2021.883 -75.617)" fill="#0d0f17"/>
      <path id="Path_4539" data-name="Path 4539" d="M6.683,2.821a.238.238,0,1,1-.238.238.237.237,0,0,1,.238-.238" transform="translate(2021.883 -75.617)" fill="#0d0f17"/>
      <path id="Path_4540" data-name="Path 4540" d="M7.5,2.288a.239.239,0,1,1-.239.239A.239.239,0,0,1,7.5,2.288" transform="translate(2021.883 -75.617)" fill="#0d0f17"/>
      <path id="Path_4541" data-name="Path 4541" d="M8.335,1.763A.239.239,0,1,1,8.1,2a.239.239,0,0,1,.239-.239" transform="translate(2021.883 -75.617)" fill="#0d0f17"/>
      <path id="Path_4542" data-name="Path 4542" d="M9.236,1.334A.238.238,0,1,1,9,1.572a.239.239,0,0,1,.238-.238" transform="translate(2021.883 -75.617)" fill="#0d0f17"/>
      <path id="Path_4543" data-name="Path 4543" d="M9.169,2.3a.231.231,0,1,1-.231.231A.231.231,0,0,1,9.169,2.3" transform="translate(2021.883 -75.617)" fill="#0d0f17"/>
      <path id="Path_4544" data-name="Path 4544" d="M15.552,25.178a9.561,9.561,0,1,1,9.56-9.561,9.572,9.572,0,0,1-9.56,9.561m0-18.185a8.623,8.623,0,1,0,8.623,8.624,8.633,8.633,0,0,0-8.623-8.624" transform="translate(2021.883 -75.617)" fill="#0d0f17"/>
    </g>
    <text id="STEELDNA" transform="translate(2063 -50)" fill="#262b40" font-size="23" font-family="Roboto-Regular, Roboto" letter-spacing="0.01em"><tspan x="0" y="0">STEELDNA</tspan></text>
  </g>
</svg>
