<svg xmlns="http://www.w3.org/2000/svg" version="1.1" width="512"
     height="512" x="0" y="0" viewBox="0 0 480 480" style="enable-background:new 0 0 512 512" xml:space="preserve"
     class=""><g><path d="M440 248H232V40a8 8 0 0 0-8-8C100.288 32 0 132.288 0 256s100.288 224 224 224 224-100.288 224-224a8 8 0 0 0-8-8zM224 464c-114.875.027-208.022-93.075-208.05-207.95C15.924 144.249 104.281 52.425 216 48.152V256a8 8 0 0 0 8 8h207.848C427.415 375.62 335.708 463.865 224 464z" fill="#262b40" opacity="1" data-original="#000000" class=""></path><path
        d="M256 0a8 8 0 0 0-8 8v216a8 8 0 0 0 8 8h216a8 8 0 0 0 8-8C479.859 100.347 379.653.141 256 0zm8 216V16.152C372.534 20.471 459.529 107.466 463.848 216H264z"
        fill="#262b40" opacity="1"></path></g></svg>