<svg width="24" height="24" viewBox="0 0 24 24" fill="none" xmlns="http://www.w3.org/2000/svg">
    <g clip-path="url(#clip0_881_2)">
        <mask id="mask0_881_2" style="mask-type:luminance" maskUnits="userSpaceOnUse" x="0" y="0" width="24" height="24">
            <path d="M24 0H0V24H24V0Z" fill="white"/>
        </mask>
        <g mask="url(#mask0_881_2)">
            <path d="M0.5 6.25V1.5C0.5 1.23478 0.605357 0.98043 0.792893 0.792893C0.98043 0.605357 1.23478 0.5 1.5 0.5H6.25" stroke="#163567" stroke-linecap="round" stroke-linejoin="round"/>
            <path d="M6.25 23.5H1.5C1.23478 23.5 0.98043 23.3946 0.792893 23.2071C0.605357 23.0196 0.5 22.7652 0.5 22.5V17.75" stroke="#163567" stroke-linecap="round" stroke-linejoin="round"/>
            <path d="M23.5 17.75V22.5C23.5 22.7652 23.3946 23.0196 23.2071 23.2071C23.0196 23.3946 22.7652 23.5 22.5 23.5H17.75" stroke="#163567" stroke-linecap="round" stroke-linejoin="round"/>
            <path d="M17.75 0.5H22.5C22.7652 0.5 23.0196 0.605357 23.2071 0.792893C23.3946 0.98043 23.5 1.23478 23.5 1.5V6.25" stroke="#163567" stroke-linecap="round" stroke-linejoin="round"/>
            <path d="M3.5 4.5V19.5" stroke="#163567" stroke-linecap="round" stroke-linejoin="round"/>
            <path d="M6.5 4.5V19.5" stroke="#163567" stroke-linecap="round" stroke-linejoin="round"/>
            <path d="M10.5 4.5V19.5" stroke="#163567" stroke-linecap="round" stroke-linejoin="round"/>
            <path d="M13.5 4.5V19.5" stroke="#163567" stroke-linecap="round" stroke-linejoin="round"/>
            <path d="M16.5 4.5V19.5" stroke="#163567" stroke-linecap="round" stroke-linejoin="round"/>
            <path d="M20.5 4.5V19.5" stroke="#163567" stroke-linecap="round" stroke-linejoin="round"/>
        </g>
    </g>
    <defs>
        <clipPath id="clip0_881_2">
            <rect width="24" height="24" fill="white"/>
        </clipPath>
    </defs>
</svg>
